<svg width="864" height="720" viewBox="0 0 864 720" fill="none" xmlns="http://www.w3.org/2000/svg">
<rect width="864" height="720"/>
<path d="M852.303 705.391C849.169 690.938 846.035 676.479 842.902 662.026C840.045 649.663 837.187 637.297 834.329 624.935C831.122 601.862 833.087 579.593 822.969 557.631C813.635 537.375 794.999 521.965 781.395 504.737C770.723 491.12 760.047 477.499 749.375 463.881C733.969 451.494 693.78 423.027 693.78 423.027C688.217 417.808 682.653 412.589 677.091 407.37C658.802 387.352 661.629 386.033 632.117 379.163C622.896 377.41 613.671 375.657 604.45 373.903C604.612 372.894 604.774 371.885 604.937 370.876C617.503 367.078 670.009 375.891 670.009 394.342C632.781 394.342 601.855 395.899 576.473 426.333C569.126 437.635 554.428 460.245 554.428 460.245C541.084 491.188 541.325 529.636 533.712 562.273C525.717 593.819 509.724 656.918 509.724 656.918C504.75 667.574 506.115 694.725 500.854 700.625C500.222 700.485 499.096 704.32 497.174 709.824C490.608 701.996 497.88 678.069 497.485 668.805C495.897 631.555 502.693 595.445 502.693 558.039C502.693 547.822 501.629 512.633 501.629 512.633C500.66 513.772 499.692 514.91 498.724 516.049C491.577 524.087 483.401 533.615 473.256 537.801C460.48 542.551 451.076 545.317 437.38 547.92C424.908 551.475 407.189 553.823 394.144 555.279C385.984 557.289 377.088 558.032 368.929 560.042C360.509 566.727 359.744 584.809 357.232 594.31C351.433 616.243 331.931 693.332 311.449 699.202C303.529 701.472 280.203 714.9 272.6 708.092C273.129 690.607 274.188 655.628 274.188 655.628C268.34 638.336 275.892 622.588 275.892 605.325C275.892 549.49 294.29 440.513 294.29 440.513C295.62 440.177 296.95 439.84 298.28 439.503C309.872 439.201 321.469 438.899 333.062 438.597C358.473 436.317 419.962 424.019 433.613 399.414C427.059 405.192 415.053 411.57 393.06 419.041C328.066 438.64 278.217 414.579 281.237 416.008C280.664 430.134 294.863 459.559 303.587 464.498C312.31 469.436 345.224 474.115 386.398 459.13C397.372 454.32 408.348 449.507 419.321 444.697C414.543 453.695 368.063 478.24 317.026 487.61C317.116 487.857 361.909 492.083 401.969 466.38C407.537 463.596 424.711 447.409 427.067 444.627C426.194 449.049 407.066 473.489 397.359 481.196C382.281 495.197 356.512 520.164 352.118 523.202C347.726 526.239 317.221 546.453 317.221 546.453C317.221 546.453 337.951 539.818 338.64 539.551C382.856 528.497 408.596 509.952 443.026 482.138C450.171 476.365 469.171 442.814 469.171 442.814C469.215 442.908 461.451 469.467 456.66 476.176C451.869 482.885 406.035 529.624 406.035 532.231C410.747 529.5 415.461 526.769 420.174 524.038C447.373 509.344 468.813 494.272 479.125 461.152C482.688 445.885 488.955 417.336 489.816 415.346C527.982 418.503 540.633 410.361 540.633 410.361C523.826 448.276 520.865 481.957 492.332 516.613C470.623 542.983 320.551 558.959 320.551 558.959C265.378 552.111 248.9 522.405 236.927 483.327C235.036 478.866 221.352 447.63 215.469 449.408C211.007 453.357 222.909 462.948 225.462 464.258C226.365 464.119 227.27 463.98 228.173 463.841C236.011 456.732 229.593 441.212 234.215 432.431C242.134 414.222 260.867 413.575 265.899 399.945C266.936 395.494 258.824 379.703 255.287 369.583C241.632 344.969 239.128 248.012 239.754 245.9C240.803 248.41 243.008 282.598 244.635 300.944C249.94 323.624 255.248 346.31 260.553 368.99C263.91 378.301 270.625 396.925 270.625 396.925C276.088 429.789 350.592 424.053 368.464 404.524C376.457 395.791 393.292 357.991 393.292 357.991C387.624 356.55 381.956 355.109 376.288 353.668C355.783 351.547 324.05 349.767 305.523 358.061C305.523 358.107 305.523 358.154 305.523 358.2C308.808 358.2 316.148 362.981 320.552 363.778C330.761 365.623 372.643 361.037 380.278 354.157C380.278 353.936 380.278 353.715 380.278 353.494C373.874 351.705 367.47 349.915 361.066 348.126C339.694 343.856 323.096 350.65 304.826 358.722C304.154 358.513 303.484 358.304 302.812 358.096C301.663 353.568 299.365 344.51 299.365 344.51C295.953 301.432 305.221 284.241 312.2 278.639C309.363 283.171 304.488 294.8 307.731 298.6C312.622 304.331 323.147 304.381 323.147 296.3C320.139 292.288 314.534 294.988 312.271 297.703C312.297 298.319 312.431 300.425 312.456 301.04C315.051 303.394 325.54 302.833 326.981 298.914C330.105 300.715 333.231 302.516 336.355 304.318C342 305.78 349.988 302.303 349.988 302.303C353.241 300.92 357.41 299.804 360.136 296.683C364.181 289.346 347.909 291.199 351.964 298.53C356.103 306.012 373.92 307.158 377.585 301.383C381.802 293.964 361.725 264.898 361.725 244.707C363.274 237.817 364.823 230.925 366.373 224.035C369.731 224.035 373.993 234.906 378.109 236.55C390 241.301 401.195 241.134 413.976 240.454C430.982 239.549 442.467 218.109 426.177 218.109C426.177 228.863 404.928 228.878 399.025 221.839C395.937 207.908 416.168 209.579 422.69 215.494C430.927 230.243 391.728 231.031 388.644 220.166C388.644 198.488 433.105 213.206 431.251 226.614C429.744 237.511 407.457 238.33 400.031 237.491C375.91 234.764 359.996 225.402 365.947 198.552C378.866 183.458 443.572 200.454 453.938 210.312C453.938 172.874 371.303 189.092 366.451 195.032C358.098 198.924 352.401 192.952 345.302 189.732C331.085 189.732 324.478 205.8 309.164 207.058C297.997 207.975 279.169 208.591 269.008 202.602C268.646 202.102 267.987 201.649 267.922 201.103C267.907 200.973 270.246 202.2 272.715 202.952C279.441 205.233 320 207.118 323.31 201.113C323.31 181.023 258.843 173.557 264.582 219.608C264.815 224.419 265.047 229.23 265.28 234.04C269.204 237.508 310.492 234.164 308.544 223.651C305.667 208.128 278.764 219.388 282.786 229.055C287.468 240.304 315.717 227.803 300.681 216.54C285.907 205.474 254.402 239.021 243.743 245.335C242.246 243.742 240.748 242.15 239.251 240.558C233.146 225.027 242.199 184.158 242.199 184.158C243.197 184.452 244.196 184.747 245.194 185.042C258.674 189.44 276.27 174.391 283.98 164.311C291.584 154.369 293.255 138.146 296.374 126.476C302.675 110.303 315.28 77.9519 315.28 77.9519C316.535 86.2403 317.792 94.5305 319.048 102.818C323.714 113.491 351.244 182.717 358.298 182.717C369.049 173.431 353.131 106.958 363.463 88.4563C363.842 88.3634 364.221 88.2705 364.6 88.1776C364.6 108.99 409.364 184.554 433.7 184.554C417.799 170.502 393.752 115.163 398.994 96.2655C405.226 103.391 411.459 110.52 417.69 117.646C441.54 144.965 461.484 206.742 461.484 206.742C462.225 205.426 462.965 204.109 463.705 202.792C468.874 193.476 474.704 180.272 474.704 169.512C474.997 168.412 475.29 167.312 475.583 166.212C476.357 167.901 477.133 169.589 477.907 171.278C486.827 193.045 490.405 214.316 490.405 237.605C490.405 271.207 484.274 329.517 467.737 358.418C460.714 367.976 456.361 374.617 449.338 384.175C444.518 395.515 440.359 395.833 435.54 407.173C430.807 414.703 417.413 433.38 410.702 440.29C409.149 442.566 414.282 440.861 414.282 440.861C414.282 440.861 427.158 437.948 433.596 436.492C449.624 432.379 459.689 431.52 467.939 415.622C482.358 387.835 494.008 359.08 508.894 331.401C512.076 325.485 517.101 304.616 524.593 302.351C524.747 302.351 524.903 302.351 525.057 302.351C525.057 349.449 501.504 385.646 469.747 418.875C469.747 419.031 469.747 419.341 469.747 419.341C469.747 419.341 481.901 413.825 487.978 411.067C506.983 400.461 526.409 382.838 535.077 362.264C541.256 347.81 547.438 333.351 553.617 318.897C553.858 318.897 554.099 318.897 554.34 318.897C555.942 324.165 557.542 329.434 559.144 334.701C562.432 356.95 544.217 382.044 529.086 396.473C525.356 400.03 513.697 411.486 513.697 411.486C513.697 411.486 586.182 403.856 602.964 357.498C619.746 311.14 599.649 267.122 580.455 224.685C554.835 168.04 526.366 111.695 486.807 62.1947C471.806 43.4238 449.426 20.5769 423.439 19.1078C406.694 18.1621 400.983 22.678 385.865 27.249C385.865 20.8759 364.413 12.3078 360.107 10.6906C343.986 4.63664 298.964 39.9181 283.754 56.6862C203.864 144.765 112.046 305.364 169.574 417.251C179.388 439.29 204.642 448.569 204.642 448.569C204.642 448.569 192.601 473.124 187.163 483.526C184.427 490.264 181.621 497.945 178.884 504.684C177.283 510.958 174.965 518.648 173.365 524.922C170.808 533.009 172.051 541.439 169.495 549.526C167.687 559.565 165.879 569.607 164.072 579.646C161.403 594.497 161.28 611.021 155.319 625.102C146.514 642.251 137.708 659.406 128.903 676.555C124.891 683.381 115.425 701.946 115.425 709.882C114.032 709.882 114.571 698.437 114.571 698.307C115.036 695.729 115.5 693.148 115.966 690.569C116.889 680.555 118.529 670.366 124.332 661.845C132.03 650.544 137.645 637.035 141.143 623.779C142.227 618.294 143.312 612.809 144.397 607.324C149.38 591.058 154.364 574.787 159.347 558.52C160.845 549.968 162.342 541.415 163.84 532.864C169.236 514.877 174.634 496.886 180.03 478.9C174.431 478.9 168.947 479.923 163.609 481.62C159.425 483.246 155.241 484.873 151.059 486.499C139.203 488.631 124.538 488.999 113.951 495.075C110.156 497.166 106.359 499.258 102.564 501.349C93.4665 507.652 86.133 513.145 75.2182 508.252C69.6187 508.252 74.6791 515.267 76.691 518.081C82.9096 526.784 90.5136 534.918 95.1269 544.646C100.525 556.027 108.265 567.923 111.397 580.062C113.591 590.869 115.785 601.677 117.979 612.483C118.341 618.059 118.702 623.639 119.065 629.215C120.279 638.712 120.74 647.756 118.988 657.244C118.342 660.148 117.696 663.053 117.05 665.957C116.87 665.911 116.689 665.865 116.508 665.819C114.984 656.78 113.461 647.738 111.937 638.699C111.007 632.517 110.078 626.334 109.148 620.152C108.735 612.415 108.322 604.674 107.909 596.935C105.628 582.527 100.343 568.753 95.3606 555.313C92.4951 555.522 89.6277 555.732 86.7613 555.94C82.4009 557.629 78.4149 563.01 75.5291 566.469C70.1844 573.021 64.8379 579.576 59.4932 586.128C45.2401 604.763 36.9581 628.462 30.7533 650.829C28.4029 659.474 26.0525 668.121 23.7031 676.766C19.4687 687.478 15.2334 698.194 11 708.906" stroke="#333333" stroke-width="2" stroke-linejoin="round"/>
</svg>
