<svg width="1200" height="720" viewBox="0 0 1200 720" fill="none" xmlns="http://www.w3.org/2000/svg">
<rect width="1200" height="720" fill="white"/>
<path d="M-5 374H106.725V338.149C119.35 329.731 121.255 330.06 139.348 316.747C143.148 311.4 151.626 301.776 155.426 296.43C155.426 305.075 160.66 318.423 166.757 324.97C171.156 328.448 175.861 331.414 180.462 333.88C174.613 333.88 171.156 334.239 165.387 334.565C152.288 335.955 119.655 340.827 116.736 341.418C130.008 341.149 209.737 339.575 223.631 338.677C223.631 338.677 231.892 316.228 235.965 288.648C238.906 302.664 239.664 319.328 231.045 335.633C235.645 335.966 245.755 335.603 250.355 335.936C265.003 335.936 273.083 333.474 287.547 333.474C286.808 319.722 286.726 307.883 285.987 294.131C280.37 295.816 278.591 303.506 271.597 304.411C263.99 305.395 257.3 298.736 253.096 296.872C249.572 296.499 246.985 295.869 243.462 295.495C240.162 292.502 234.395 280.11 234.968 275.259C235.891 272.06 236.814 268.86 237.737 265.66C233.657 274.556 231.123 285.051 226.768 293.662C217.275 303.826 199.817 310.35 185.944 309.208C164.703 307.46 159.943 288.672 155.108 270.145C153.6 263.995 149.079 258.476 147.571 252.327C147.571 252.327 147.771 264.725 146.886 270.83C145.789 274.099 142.363 273.103 140.718 271.515C134.952 269.45 121.764 242.572 125.643 236.564C129.471 230.638 141.082 231.062 141.385 238.367C141.731 227.461 142.078 216.552 140.698 207.102C151.874 202.183 167.654 201.428 180.462 198.186C186.523 200.347 193.592 203.816 195.627 203.291C198.49 203.228 205.686 192.702 218.149 193.389C224.634 193.602 228.42 194.756 242.132 203.669C242.504 203.196 243.816 202.086 244.188 201.613C248.824 189.078 223.631 162.176 223.631 148.158C213.744 148.158 153.225 146.396 146.809 154.64C144.45 163.988 143.078 175.131 140.718 184.48C137.646 192.471 126.898 205.142 134.551 213.263C142.14 222.83 170.181 211.443 178.738 222.128C171.637 224.856 152.31 218.474 152.31 230.265C152.708 230.796 153.105 231.327 153.503 231.858C159.423 231.858 173.263 222.774 177.854 228.326C182.605 232.584 167.528 240.045 164.016 237.935C162.324 236.769 161.554 235.184 162.646 233.823C165.666 230.002 187.862 225.213 190.055 233.138C188.983 247.287 177.826 257.338 181.832 262.606C185.202 264.665 186.688 258.876 190.2 258.172C195.749 258.882 198.57 264.427 202.389 261.236C204.652 258.529 196.327 230.193 203.074 218.061C207.434 210.221 221.7 206.231 227.742 215.319C227.576 216.404 227.224 217.661 227.057 218.746C219.39 221.469 208.513 216.953 202.59 226.698C203.174 230.122 206.215 229.648 217.464 231.767C219.644 230.054 223.631 229.091 223.631 226.284C220.086 221.78 210.945 226.073 212.63 227.321C212.65 230.313 218.519 230.193 220.89 231.082C241.409 231.082 235.688 211.484 239.391 210.522C244.383 208.694 239.328 228.71 243.405 227.841C245.865 227.022 244.771 224.137 246.906 222.854C250.347 223.475 254.254 263.664 243.867 259.871C238.295 261.306 233.796 263.188 229.113 267.404C222.44 273.41 211.457 285.802 201.974 287.018C195.018 287.91 177.2 290.857 172.924 283.166C172.873 282.589 172.25 280.739 172.199 280.161C176.352 273.654 197.347 270.594 203.936 273.583C204.244 274.829 204.822 276.437 205.13 277.683C203.008 282.439 191.636 284.384 187.999 281.11C187.922 280.187 186.706 279.977 186.629 279.054C194.255 272.221 272.195 274.257 285.987 274.257C285.859 274.105 286.88 154.568 286.672 152.27C286.672 152.27 112.591 154.238 106.457 154.326C106.457 154.326 100.572 547.742 100.29 568.259C100.29 568.259 102.878 548.474 106.457 549.755C116.939 551.851 131.136 538.401 137.06 533.848C138.887 533.71 140.714 533.571 142.542 533.433C148.307 530.67 149.806 520.633 158.534 522.342C169.673 533.293 184.017 547.806 206.5 543.587C222.699 540.548 236.154 511.688 239.397 498.555C241.531 492.236 243.667 485.916 245.802 479.597C245.802 479.597 247.381 487.122 242.817 510.692C241.929 516.487 260.178 524.02 266.8 523.713C271.685 522.631 278.62 522.412 283.506 521.331C283.053 534.401 283.428 551.59 283.246 562.091C257.048 562.545 263.065 563.61 233.217 563.61C234.775 560.19 236.333 556.771 237.891 553.351C240.266 541.775 241.469 530.189 241.469 518.318C241.406 523.054 231.46 560.353 224.796 563.821C222.556 564.07 191.02 568.144 142.774 571C128.812 569.693 117.956 569.33 108.513 567.573C133.218 565.33 139.549 565.724 155.108 564.832C162.378 565.516 173.877 564.834 181.147 565.517C181.147 565.517 168.689 554.829 164.016 550.44C154.808 513.572 154.416 519.532 148.941 508.636C149.127 485.13 137.161 478.143 136.607 470.258C136.607 470.258 144.938 495.872 137.233 497.231C127.716 498.914 110.723 452.414 127.699 453.81C130.992 455.457 130.394 465.314 134.723 465.314C134.886 464.318 135.05 463.322 135.213 462.327C134.982 450.891 140.786 444.56 145.917 439.24C145.917 439.24 116.05 445.171 116.05 431.88C135.032 393.313 134.376 386.912 134.867 387.356C126.03 387.199 117.19 387.044 108.352 386.888C108.246 385.459 108.141 384.031 108.034 382.603C150.25 382.421 192.478 382.239 234.693 382.057C234.303 380.773 257.468 416.667 252.034 423.246C247.748 434.957 235.93 424.746 223.631 425.027C215.712 425.442 208.938 431.723 202.389 435.307C186.185 438.41 175.854 434.907 161.872 435.114C158.468 436.032 155.063 436.95 151.659 437.867C152.543 440.204 153.538 444.62 154.423 446.957C154.423 446.957 142.09 456.267 147.937 455.215C152.955 453.573 180.617 449.834 179.27 457.137C177.428 462.025 155.502 450.007 146.552 458.695C159.516 457.384 159.094 459.163 165.363 459.396C163.647 460.953 156.999 462.306 157.775 465.81C156.945 466.688 166.279 471.215 169.604 464.98C169.671 464.123 169.739 463.266 169.806 462.408C166.181 462.023 164.734 462.11 163.372 465.499C168.21 473.078 182.052 458.026 187.233 463.447C193.669 470.182 184.883 488.15 183.194 495.598C180.467 497.569 194.749 503.328 205.784 494.378C205.756 493.538 205.727 492.698 205.698 491.859C204.242 489.668 198.221 489.013 197.36 492.118C197.36 493.157 195.263 492.941 203.65 492.767C207.965 486.945 194.619 464.58 194.619 454.072C196.624 450.45 229.142 436.944 232.242 441.113C233.83 445.8 232.499 448.035 203.102 453.995C203.102 462.306 218.758 468.569 222.663 459.76C222.74 458.565 222.816 457.371 222.894 456.176C220.733 453.248 212.314 454.159 210.141 456.514C209.988 457.094 209.833 457.674 209.679 458.253C212.931 461.174 227.827 459.358 227.827 453.423C248.939 452.501 242.467 442.213 238.3 433.348C243.465 436.471 245.509 447.643 248.985 447.643C250.658 445.842 250.578 441.087 253.781 440.104C259.906 440.902 259.26 462.61 256.522 467.517C254.634 471.303 252.33 470.943 248.299 470.943C248.299 474.256 246.816 475.053 249.235 477.938C260.159 477.575 270.952 478.846 281.875 478.482C281.875 478.482 280.745 388.579 280.745 381.032C282.787 380.817 342.831 380.236 342.861 380.481C339.592 385.233 337.823 392.148 334.554 396.9C328.454 406.832 320.934 422.714 320.934 434.621C320.934 434.621 339.135 437.094 346.972 437.363C358.223 437.198 369.723 434.876 380.974 434.712C390.801 429.302 400.632 423.891 410.461 418.482C414.896 417.104 434.068 416.678 434.068 425.316C434.703 424.874 435.338 424.433 435.973 423.991C438.508 418.037 435.007 408.93 431.94 403.782C428.335 398.459 421.842 391.972 418.236 386.649C406.244 387.106 347.242 382.863 346.972 380.481C354.058 380.268 469.727 380.841 473.054 380.481C473.054 380.481 473.418 514.472 473.555 515.557C471.097 515.557 461.52 515.619 461.405 515.489C442.509 515.489 442.211 518.049 433.996 508.636C432.015 506.679 430.156 504.207 427.829 501.783C427.829 501.783 424.101 555.948 412.069 561.406C408.545 558.704 420.797 531.516 417.551 520.972C408.246 541.557 388.368 541.963 379.178 539.475C373.961 538.101 359.645 521.204 355.88 522.342C353.112 526.473 370.955 551.717 370.955 562.091C366.858 562.091 349.527 530.417 349.053 523.573C349.053 523.573 347.457 509.999 346.658 503.213C342.967 499.865 342.157 494.882 342.157 489.994C341.35 489.994 342.957 490.476 337.379 496.986C330.751 497.633 326.366 463.359 328.471 459.293C329.077 458.713 329.953 457.41 330.56 456.831C334.833 455.965 336.061 467.634 337.223 479.788C343.298 475.237 336.694 457.624 336.694 450.384C339.079 446.084 366.801 444.978 371.817 446.495C371.817 446.495 373.63 447.521 372.654 449.066C357.985 458.279 345.554 455.267 346.287 451.754C350.142 447.046 366.949 450.269 369.364 454.623C369.384 455.126 369.403 455.627 369.422 456.13C363.258 461.787 350.831 462.086 351.769 459.293C352.763 456.613 371.986 453.447 375.752 455.866C385.622 466.195 370.175 475.148 371.64 483.964C373.015 492.234 389.523 489.765 394.938 486.706C400.046 471.806 390.823 479.445 389.272 471.062C389.181 469.301 389.449 467.604 390.142 460.664C390.349 455.808 390.274 450.017 389.456 444.901C391.955 440.486 415.065 435.858 417.749 441.027C417.516 444.982 395.235 450.026 395.822 446.313C395.822 446.252 395.822 446.192 395.822 446.131C400.469 441.942 412.7 444.386 412.7 451.585C410.922 454.795 403.969 455.117 400.813 455.117C398.467 453.247 399.812 453.279 399.735 451.754C401.431 449.627 403.837 448.812 406.67 449.325C411.403 452.732 403.208 454.624 402.476 453.125C401.49 451.747 405.878 449.89 408.199 451.558C419.026 455.718 405.246 530.531 375.752 507.951C374.84 503.445 396.491 491.31 402.476 499.727C410.054 516.825 359.511 505.347 353.265 507.809C344.514 511.26 347.467 525.388 338.064 531.251C330.612 534.779 326.352 533.148 315.452 535.363C306.063 540.502 297.573 555.554 296.951 557.294C296.951 557.294 299.182 433.515 296.951 412.691C298.369 400.292 291.147 566.227 292.839 565.517C296.603 567.099 354.838 565.507 473.739 565.517C477.568 565.896 491.767 557.979 491.555 557.979C491.555 557.979 676.697 560.101 681.364 559.35C681.364 559.35 681.022 522.84 680.678 520.972C670.408 520.885 669.021 525.855 658.751 525.769C648.593 523.479 645.395 522.834 639.565 517.545C637.971 517.545 636.438 517.199 627.916 554.552C623.465 555.386 632.87 526.298 633.594 504.921C619.42 529.712 616.747 536.323 588.858 536.734C568.018 536.335 565.988 525.39 555.282 519.601C554.07 519.402 548.956 516.374 547.744 516.174C540.528 522.571 563.504 547.631 563.504 554.552C560.995 555.211 551.898 546.524 544.817 531.332C544.817 531.332 541.256 544.189 510.742 548.384C509.789 548.515 492.504 555.016 492.926 553.867C492.926 553.867 493.707 535.235 493.611 527.14C494.767 522.852 493.79 387.64 494.296 382.537C503.902 382.338 516.184 382.069 525.791 381.87C522.938 396.207 516.274 417.766 514.853 429.824C526.2 430.283 536.397 427.994 547.744 428.454C547.659 435.838 536.58 439.073 535.41 445.587C531.909 452.643 538.632 462.924 529.831 464.013C525.792 460.577 525.059 457.932 521.02 454.496C520.703 454.755 517.078 454.223 516.761 454.483C514.046 464.27 518.602 488.497 526.502 495.615C535.503 500.762 533.354 477.84 533.354 472.999C537.313 513.487 543.938 509.312 548.429 509.321C557.491 500.025 602.357 488.023 607.961 498.06C607.98 498.389 608 498.718 608.019 499.047C603.686 505.874 575.838 508.571 575.838 500.412C583.282 495 588.593 489.123 592.969 500.412C590.358 500.688 575.469 510.464 577.894 475.055C579.74 473.532 579.906 475.771 581.32 467.517C580.936 464.02 582.39 458.678 582.005 455.181C575.207 431.383 545.969 447.606 542.843 451.834C542.527 457.013 569.138 455.853 569.704 451.495C569.781 450.82 569.858 450.145 569.934 449.47C562.267 441.447 549.179 459.677 550.2 466.584C552.248 470.046 562.504 469.829 565.001 466.455C565.03 465.987 565.058 465.52 565.087 465.052C561.885 463.84 558.682 462.628 555.48 461.416C555.268 461.607 555.057 461.797 554.845 461.988C554.826 462.265 554.807 462.542 554.787 462.819C558.091 467.583 570.451 462.635 574.147 460.663C584.772 454.995 605.851 430.576 620.425 439.939C620.579 441.056 620.732 442.172 620.887 443.289C616.811 447.57 591.157 444.847 593.044 453.937C594.41 455.616 595.776 457.296 597.142 458.976C599.97 460.161 611.285 460.23 609.49 454.638C607.834 452.843 602.167 451.473 600.171 453.522C600.104 454.179 600.037 454.838 599.969 455.495C607.334 467.088 628.101 450.415 633.177 452.717C637.978 457.001 628.737 501.588 629.6 502.371C629.831 502.363 630.062 502.354 630.293 502.345C634.483 499.837 636.841 484.049 636.841 479.465C639.852 479.673 642.862 479.881 645.872 480.089C653.496 469.819 652.479 449.041 652.479 436.667C652.114 436.234 651.749 435.802 651.383 435.368C649.422 435.412 647.459 435.456 645.497 435.499C643.843 438 642.189 440.502 640.535 443.004C638.419 443.254 636.303 443.506 634.188 443.757C629.832 440.275 623.166 429.17 623.166 423.111C627.993 422.262 632.822 421.413 637.649 420.566C637.871 419.492 638.092 418.418 638.313 417.345C638.313 417.441 638.313 417.536 638.313 417.631C638.313 417.631 632.196 396.577 629.138 386.052C596.776 386.052 564.296 386.415 532.052 386.415C532.052 386.328 532.052 386.242 532.052 386.156C538.485 380.321 554.931 382.779 562.606 382.779C587.31 381.844 612.022 380.909 636.726 379.974C648.266 379.576 659.809 379.178 671.349 378.78C671.349 378.78 671.73 406.828 671.92 420.851C671.316 452.465 671.141 483.574 671.141 515.096C671.189 514.872 671.237 514.646 671.285 514.421C671.285 514.421 677.267 513.054 680.258 512.37C680.2 512.37 680.142 512.37 680.086 512.37C680.086 512.37 684.018 334.87 684.018 333.304C684.018 333.304 566.484 333.194 505.26 333.194C532.63 328.071 532.216 327.286 542.947 319.488C546.662 316.372 551.567 311.639 555.282 308.523C557.344 318.274 559.022 325.656 564.19 325.656C564.531 317.982 558.708 307.633 558.708 299.614C566.002 299.614 582.628 318.877 597.766 315.376C609.224 312.726 632.767 287.963 634.083 287.963C636.083 290.892 636.194 292.573 638.194 295.502C638.194 300.99 626.593 319.327 632.784 324.943C632.827 324.943 632.872 324.943 632.916 324.943C638.168 321.157 639.758 308.708 640.235 302.683C640.148 301.516 642.393 300.781 642.305 299.614C653.614 301.958 662.592 303.871 673.901 306.215C680.841 309.725 677.067 321.31 677.067 327.496C674.689 327.372 680.073 328.254 683.419 329.082C683.419 329.082 684.289 151.652 684.79 148.843C684.79 148.843 645.066 149.529 625.175 149.529C625.175 167.018 648.473 182.736 648.473 198.872C642.171 201.729 636.673 196.13 631.342 196.13C634.91 212.974 638.059 222.932 638.879 222.858C640.174 216.487 640.008 208.848 641.303 202.477C648.336 211.965 643.874 221.731 645.046 223.543C645.046 223.543 648.44 218.042 651.806 219.687C657.112 222.55 651.612 252.995 648.151 257.153C646.459 257.591 644.765 258.03 643.072 258.468C642.623 256.38 642.175 254.29 641.726 252.201C637.343 252.201 640.046 283.851 632.027 283.851C631.617 282.616 629.712 280.826 629.301 279.591C623.458 276.941 586.609 278.254 583.407 283.988C581.973 287.214 598.878 291.87 613.105 276.821C612.631 275.182 612.157 273.543 611.682 271.903C606.338 268.32 595.474 271.18 591.756 276.198C594.931 283.838 610.631 270.953 610.785 257.809C599.447 255.99 593.747 227.956 596.395 216.005C601.31 211.569 626.545 202.261 626.545 215.319C624.964 217.213 603.037 224.052 601.373 221.072C601.449 220.552 601.527 220.033 601.604 219.514C605.508 217.153 622.863 219.143 625.069 224.119C625.056 224.592 625.044 225.066 625.031 225.539C623.58 229.026 610.932 232.587 607.72 230.283C607.233 228.909 606.746 227.535 606.258 226.162C608.529 223.701 611.845 223.081 615.068 223.081C615.106 224.211 615.144 225.343 615.183 226.474C595.319 240.888 571.787 201.224 545.631 224.95C545.323 228.887 573.667 229.645 576.598 224.153C576.714 215.972 553.235 225.407 553.864 229.902C553.979 230.94 554.094 231.979 554.21 233.018C555.467 235.298 569.014 237.36 570.943 235.892C574.131 236.357 568.569 228.052 559.518 230.94C559.159 232.74 557.556 232.025 564.327 233.088C564.327 232.273 541.161 226.602 536.09 236.862C532.274 250.62 554.832 287.68 555.967 294.816C550.752 286.376 545.374 278.112 541.014 269.965C541.014 269.965 540.487 271.857 539.539 272.804C538.872 272.792 538.205 272.781 537.538 272.77C528.741 266.819 515.369 246.35 521.381 235.49C522.535 235.201 523.689 234.913 524.843 234.624C527.215 235.778 526.871 234.725 529.243 235.879C533.349 228.525 516.959 213.386 529.781 206.598C545.813 198.111 578.477 202.733 596.949 199.88C603.898 197.549 610.849 195.217 617.798 192.885C585.155 195.563 557.09 198.25 524.446 200.928C524.113 203.72 520.549 205.451 518.964 208.466C518.747 203.561 519.182 203.091 518.964 198.186C522.99 192.704 526.256 183.617 530.282 178.135C534.813 169.981 537.683 156.104 545.003 149.529C570.3 148.813 593.732 149.002 619.03 148.286C618.965 149.268 618.387 151.289 618.323 152.27C615.311 159.064 593.951 155.35 589.063 155.35C569.459 155.35 551.225 151.271 532.206 149.775C522.486 150.249 512.765 150.722 503.046 151.195C503.587 178.742 500.189 328.292 501.148 335.936C501.148 335.936 311.61 335.613 303.803 335.25C303.803 335.25 301.897 155.316 302.432 149.529C314.766 149.598 336.009 150.145 348.343 150.214C340.799 160.353 332.634 184.108 330.527 196.13C340.256 197.673 342.525 198.943 349.028 199.557C348.838 216.56 343.25 224.068 342.861 232.452C338.987 226.87 335.956 209.946 331.212 201.613C334.469 210.777 337.548 223.974 340.805 233.138C338.818 232.872 333.884 234.089 331.897 233.823C322.697 242.168 337.865 249.064 339.05 256.024C340.323 263.51 341.085 276.272 349.028 273.571C353.48 269.302 342.896 247.769 344.855 246.28C345.762 246.938 364.836 298.209 364.281 300.714C325.815 328.078 333.268 326.117 333.268 329.768C354.801 329.354 363.704 313.092 367.529 305.096C373.775 305.945 390.568 331.758 417.599 308.192C421.253 305.007 430.952 289.334 436.052 289.334C442.052 294.793 429.541 327.657 424.403 331.824C433.194 331.824 436.732 307.81 437.834 301.89C438.206 300.252 438.578 298.612 438.95 296.974C441.684 299.56 469.096 330.306 484.018 322.914C484.018 322.914 483.612 289.585 483.458 273.393C484.138 264.598 488.308 254.83 486.459 245.795C484.266 233.954 484.155 223.734 481.962 211.893C484.501 191.569 478.738 170.538 481.277 150.214C463.018 150.439 450.202 150.829 440.848 150.899C440.848 153.706 447.183 162.682 449.756 165.976C463.828 183.994 457.886 196.894 446.528 232.949C452.369 225.203 453.109 222.715 457.979 225.599C460.346 227.676 461.609 230.605 460.954 239.008C460.954 239.008 457.132 270.474 443.589 267.404C435.652 260.291 446.139 251.983 443.589 242.732C442.166 241.959 441.95 239.608 440.527 238.835C437.968 233.129 447.144 220.909 447.144 213.627C442.347 206.468 431.94 210.687 431.94 198.872C433.236 197.129 432.154 194.179 433.448 192.436C451.783 195.637 454.216 199.349 453.868 193.389C423.485 180.237 405.121 201.613 388.771 201.613C382.335 201.613 361.389 195.173 355.88 202.298C355.252 210.839 354.715 216.271 354.088 224.812C358.485 219.013 364.942 217.052 373.591 217.505C375.321 218.901 376.762 220.09 378.493 221.487C378.889 225.901 356.578 225.309 357.251 222.172C367.957 212.618 379.537 225.009 389.456 224.228C400.503 223.359 420.039 201.339 434.564 217.63C434.757 218.91 434.949 220.192 435.141 221.473C417.017 230.112 398.368 228.314 398.579 225.739C400.155 222.645 419.329 216.506 426.909 221.626C427.999 224.107 429.089 226.589 430.179 229.071C427.976 236.951 417.177 237.866 410.56 237.866C409.111 236.723 407.661 235.58 406.212 234.438C406.212 242.511 401.975 224.475 418.921 229.026C423.024 232.441 421.972 230.328 422.023 231.806C410.681 241.994 378.914 222.487 361.362 234.508C360.581 236.459 362.369 237.134 363.397 237.831C366.752 238.972 372.97 239.066 375.752 236.564C376.047 235.768 376.251 235.261 376.545 234.465C374.259 230.948 370.347 234.044 370.814 235.401C373.813 238.494 380.4 231.746 384.939 232.776C385.131 233.018 385.324 233.261 385.516 233.503C383.99 243.486 382.464 253.472 380.938 263.455C382.836 263.893 384.734 264.332 386.631 264.771C387.49 264.136 388.35 263.501 389.209 262.867C389.401 262.035 389.594 261.204 389.786 260.374C388.979 260.362 388.171 260.35 387.363 260.339C387.196 260.546 387.029 260.754 386.862 260.962C386.875 261.434 386.888 261.908 386.9 262.381C388.733 265.116 393.545 264.771 396.403 264.771C397.172 264.102 397.941 263.431 398.711 262.762C398.518 261.839 398.326 260.916 398.134 259.993C397.698 260.027 397.262 260.061 396.826 260.096C396.518 260.835 396.21 261.574 395.902 262.312C398.082 262.462 400.262 262.613 402.442 262.762C407.974 260.275 396.403 246.158 396.403 241.259C396.403 241.594 396.403 241.929 396.403 242.263C396.403 242.263 417.464 266.641 410.534 278.15C404.324 285.123 391.894 281.856 383.776 281.856C383.776 278.97 399.126 281.132 400.423 285.025C400.393 285.337 400.362 285.65 400.332 285.962C398.676 288.008 388.463 288.631 386.711 286.879C386.711 286.772 386.711 286.665 386.711 286.558C387.736 284.469 402.217 285.5 402.217 286.387C405.034 292.022 402 359.157 402 374H1213.25" stroke="#0E0C0E" stroke-width="2" stroke-linejoin="round"/>
</svg>
