<svg width="1200" height="720" viewBox="0 0 1200 720" fill="none" xmlns="http://www.w3.org/2000/svg">
<rect width="1200" height="720" fill="white"/>
<path d="M1201 374C1201 374 699.64 374.067 699 374C696.936 397.857 650.307 428.977 605.103 443.545C606.909 455.985 626.859 457.219 631.715 461.834C634.798 464.269 634.428 466.172 633.399 468.115C629.05 472.26 622.119 474.856 616.637 476.102C605.029 479.024 593.361 476.266 582.712 481.239C571.738 485.258 579.642 499.569 567.095 504.64C557.008 508.716 552.352 508.256 541.786 509.776C535.377 510.199 516.434 510.859 508.938 502.927C490.003 492.683 421.252 497.883 384.545 499.503C351.592 500.42 338.132 502.927 315.618 502.927C307.98 502.927 289.459 504.794 283.308 498.932C278.251 495.621 280.215 490.288 287.616 488.659C287.616 488.659 291.975 488.53 292.462 484.664C292.31 477.533 255.942 480.757 236.996 483.522C224.122 483.824 214.219 486.887 204.686 489.8C184.918 493.338 183.909 494.937 163.761 494.937C147.986 493.926 146.175 491.685 148.144 488.659C151.301 482.628 178.946 479.251 186.377 472.107C186.377 471.55 186.51 469.488 184.644 468.461C165.321 464.519 156.071 469.076 129.744 480.064C126.223 481.534 100.123 488.355 97.8891 480.565C98.0032 471.345 119.604 471.722 119.604 462.975C118.541 455.865 84.5952 466.872 85.425 454.215C89.1202 447.141 97.9596 447.059 104.47 446.602C112.858 446.014 120.106 447.61 128.758 448.136C144.633 449.101 153.431 450.198 170.223 450.99C198.781 453.248 229.718 455.904 257.757 457.498C328.239 460.064 352.676 463.341 401.585 461.828C401.585 461.828 446.733 456.906 469.303 454.446C489.395 452.004 513.522 449.223 536.939 445.282C568.206 440.057 593.858 436.638 623.637 424.165C637.079 418.535 668.46 404.159 676.948 391.632C679.436 387.962 693.757 370.869 689.334 367.09C681.591 367.799 639.313 381.942 632.253 383.642C601.743 390.986 530.266 394.675 504.63 395.628C480.493 396.525 460.15 397.579 457.781 394.486C470.134 393.602 481.507 393.087 493.86 392.203C497.265 380.285 501.087 369.873 504.492 357.956C505.339 353.38 505.937 349.978 506.784 345.402C506.784 345.402 469.881 341.854 442.703 335.699C418.046 330.835 413.698 321.637 412.008 319.148C416.24 320.609 422.854 325.677 427.086 327.138C433.624 330.484 468.222 340.824 492.076 341.502C494.977 341.585 516.743 344.745 518.631 347.114C515.328 343.161 510.29 341.654 506.784 337.982C507.71 338.098 513.396 337.296 514.323 337.412C527.089 341.134 527.431 344.307 528.862 345.973C530.689 341.161 527.845 339.207 527.247 338.553C522.717 332.425 504.615 329.854 490.629 329.421C492.572 328.537 517.744 326.852 528.862 327.138C529.809 326.735 542.993 326.971 543.94 326.568C513.469 311.631 491.825 323.143 481.474 323.143C479.222 320.978 489.183 319.482 490.09 319.148C498.133 316.183 519.937 315.337 524.016 315.153C524.833 311.367 495.205 309.128 484.167 315.153C480.927 316.566 479.118 318.852 476.075 320.006C473.929 310.48 503.489 298.324 508.399 295.177C508.419 294.888 507.841 293.753 507.861 293.464C478.004 296.419 469.744 319.719 462.089 319.719C462.089 313.218 477.358 295.432 474.474 287.186C472.56 287.417 472.08 290.38 470.166 290.611C466.624 295.542 461.532 305.086 455.579 314.641C454.43 317.255 453.281 319.87 452.132 322.484C452.132 314.88 452.28 304.251 449.095 302.532C448.772 302.456 448.45 302.379 448.127 302.302C444.452 309.657 446.472 317.612 445.3 321.217C441.802 310.853 434.345 300.224 433.01 299.172C432.006 302.052 433.499 304.947 438.933 312.87C438.933 312.695 426.071 300.206 422.24 300.884C420.743 304.862 429.618 313.705 431.933 315.723C426.133 312.652 411.48 303.801 407.7 306.021C407.584 309.029 420.713 314.277 427.625 318.006C420.768 317.67 414.748 316.775 408.239 316.294C408.239 316.294 405.967 340.993 405.195 353.907C403.72 366.594 402.244 379.285 400.769 391.972C404.287 392.307 407.806 392.641 411.325 392.976C420.128 393.53 428.933 394.083 437.736 394.637C441.69 394.614 445.645 394.591 449.599 394.568C449.599 394.568 423.333 396.792 411.376 396.506C387.665 396.575 363.947 396.645 340.235 396.714C274.623 397.461 208.98 406.023 143.609 406.023C158.627 403.819 173.648 401.615 188.666 399.412C188.666 399.412 188.019 361.634 194.455 341.978C193.415 339.602 192.68 334.689 191.64 332.313C192.68 329.406 193.72 326.499 194.76 323.592C193.902 320.928 192.613 319.583 192.185 315.598C197.429 309.061 195.017 310.576 196.07 299.172C196.438 295.2 199.717 294.256 201.924 292.568C204.269 290.775 202.724 288.537 204.101 286.443C207.384 281.449 217.957 280.172 222.995 281.479C236.241 284.914 250.711 308.574 235.138 308.574C235.041 308.101 234.944 307.628 234.847 307.155C236.468 306.959 238.089 306.763 239.71 306.568C239.71 312.742 240.736 320.3 238.838 325.773C234.89 327.671 232.78 325.537 232.78 320.928C234.026 320.432 235.272 319.936 236.517 319.44C236.71 319.982 236.903 320.525 237.097 321.067C235.453 320.975 233.808 320.882 232.164 320.79C231.68 319.59 231.196 318.39 230.712 317.19C233.046 316.36 235.38 315.53 237.713 314.7C237.713 314.48 237.713 314.261 237.713 314.041C237.496 313.753 237.278 313.465 237.061 313.177C233.422 308.338 233.293 300.65 226.395 300.65C226.129 301.192 225.863 301.734 225.597 302.276C225.827 302.426 226.056 302.576 226.286 302.726C227.605 302.737 228.923 302.749 230.241 302.761C230.241 302.576 230.241 302.391 230.241 302.207C229.322 302.23 228.403 302.253 227.483 302.276C226.891 303.395 226.298 304.514 225.706 305.633C227.904 307.024 231.365 306.463 231.365 306.463C229 307.032 227.648 308.78 225.742 306.947C224.714 311.434 223.686 315.922 222.658 320.409C214.747 320.409 208.229 329.095 204.918 329.095C204.918 315.095 236.364 328.907 239.383 329.13C243.177 329.41 244.266 327.709 247.767 327.709C248.105 328.251 251.186 328.207 251.524 328.749C245.261 339.74 237.918 350.736 231.655 361.727C234.34 357.933 238.082 353.762 240.766 349.968C246.755 338.542 253.739 329.569 254.229 329.421C255.221 328.61 265.459 327.728 276.495 324.597C286.188 321.846 295.603 319.975 305.372 317.398C317.83 314.112 315.787 307.733 321.541 307.733C323.899 310.905 324.568 312.552 326.926 315.723C326.068 317.661 324.759 319.905 325.034 321.655C325.518 322.058 326.003 322.462 326.486 322.866C326.474 323.085 326.462 323.305 326.45 323.524C323.693 323.789 320.935 324.054 318.178 324.319C318.044 327.246 300.274 385.441 296.847 395.606C280.209 396.125 263.566 396.644 246.929 397.163C246.929 389.21 250.404 381.115 249.903 372.49C248.573 364.255 247.243 356.017 245.913 347.782C246.372 347.516 246.832 347.251 247.291 346.986C262.982 342.829 276.339 339.103 291.296 332.313C295.432 330.745 299.568 329.176 303.703 327.607C303.715 327.146 303.728 326.684 303.739 326.222C307.306 325.219 310.875 324.215 314.442 323.212C314.562 323.35 314.683 323.489 314.804 323.627C314.752 326.128 291.375 389.793 290.847 392.203L143.836 400.764C143.836 400.764 129.713 375.075 126.5 374H0" stroke="#0E0C0E" stroke-width="2" stroke-linejoin="round"/>
</svg>
