<svg width="1200" height="720" viewBox="0 0 1200 720" fill="none" xmlns="http://www.w3.org/2000/svg">
<rect width="1200" height="720" fill="white"/>
<path d="M1207 373.376C1147.9 373.802 693.774 374.092 693.774 374.092C693.774 436.004 701.314 622.632 701.314 622.632C704.562 622.136 214.444 623 214.444 623C214.605 619.776 214.929 613.328 214.929 613.328C226.106 601.433 236.021 590.189 251.125 581.838C263.394 575.055 269.53 573.818 285.813 563.946C310.771 542.575 313.674 543.539 316.731 536.035C315.409 555.552 320.161 573.566 320.501 579.691C316.358 578.253 312.773 577.544 310.698 577.544C303.946 579.296 298.138 612.141 300.895 613.328C301.191 613.31 304.369 613.346 304.666 613.328C306.02 603.132 305.847 586.974 312.206 581.838C316.201 581.838 322.638 588.381 325.654 584.564C324.004 566.414 322.352 548.257 320.702 530.107C318.555 510.309 321.275 482.161 335.583 457.311C338.784 439.545 344.481 427.572 351.817 421.299C351.817 421.299 371.535 369.068 388.369 353.538C396.318 344.578 439.329 314.894 447.374 314.697C448.319 316.705 454.409 323.822 456.991 327.057C465.672 346.768 455.959 367.222 455.959 388.213C455.959 392.277 452.022 414.356 449.864 414.356C453.42 412.295 453.197 409.42 458.499 407.213C463.198 406.09 459.754 415.314 460.007 418.664C455.054 427.287 451.261 431.009 446.308 439.633C444.149 446.123 441.99 452.615 439.831 459.105C437.383 462.234 432.15 463.036 428.335 463.036C420.578 458.585 427.039 448.946 437.384 434.409C437.85 432.872 444.46 415.19 444.925 413.654C444.354 413.763 444.173 413.286 441.909 414.37C438.022 412.185 438.892 406.053 438.892 402.203C440.026 401.24 449.103 398.355 449.103 398.355C445.334 395.112 434.127 398.791 430.598 400.772C421.177 406.06 414.412 406.646 404.959 410.076C395.034 413.676 383.127 419.481 372.533 422.958C364.66 425.109 359.292 425.816 351.419 427.967C347.418 431.322 348.402 442.756 348.402 447.291C360.023 441.705 374.487 433.553 386.107 427.967C388.904 447.287 365.746 475.686 365.746 483.075C371.313 482.604 374.752 484.375 380.91 482.355C387.974 471.065 379.664 472.378 377.853 471.959C380.646 466.283 381.805 460.84 384.598 455.164C384.598 455.164 390.785 435.811 393.06 426.253C394.741 426.253 396.423 426.253 398.104 426.253C408.868 424.59 419.635 422.926 430.399 421.263C430.822 419.775 431.246 418.287 431.669 416.8C431.112 416.779 430.556 416.759 429.999 416.738C403.511 418.845 405.063 421.204 398.172 422.958C385.162 434.157 422.904 438.311 422.904 427.642C421.184 425.421 412.998 426.079 412.998 429.409C413.264 429.678 413.531 429.946 413.797 430.215C415.236 430.07 416.676 429.926 418.115 429.781C418.211 429.192 418.308 428.603 418.405 428.014C415.275 425.381 409.769 427.506 409.769 431.393C411.764 431.641 413.76 431.889 415.756 432.137C421.783 434.08 421.758 467.508 419.286 473.055C386.463 528.351 381.047 549.706 346.14 547.486C324.518 545.941 337.968 501.978 362.73 500.251C367.475 499.92 374.326 499.514 376.303 505.976C373.515 510.221 353.681 514.033 353.681 507.408C358.035 499.912 409.409 491.313 399.265 523.7C399.265 523.7 368.998 576.85 352.927 598.299C371.168 592.447 399.788 531.247 404.205 518.143C419.962 518.285 447.545 513.881 454.98 528.454C459.187 536.7 461.787 537.185 465.286 553.927C467.191 563.043 459.253 577.503 459.253 586.132C459.253 586.132 460.967 611.762 463.024 611.897C463.024 611.897 538.592 612.017 574.866 612.398C575.12 593.408 574.375 575.779 574.628 556.79C573.346 548.342 570.093 539.681 567.841 531.741C565.454 507.732 553.387 493.382 556.53 455.164C560.809 480.883 575.79 513.65 576.89 533.888C597.499 527.625 621.381 504.545 628.922 504.545C624.107 516.447 591.218 546.309 591.218 568.241C613.721 546.11 629.224 530.35 641.742 519.574C623.869 551.322 598.545 592.465 594.988 613.328C644.528 569.793 662.102 563.684 662.102 562.515C648.827 579.104 629.377 596.739 616.103 613.328C630.84 606.985 656.152 613.785 671.686 611.137C676.715 610.082 681.745 609.026 686.774 607.971C686.774 607.971 680.515 570.295 675.676 557.505C676.402 560.575 669.131 526.255 658.332 509.555C654.082 499.237 649.416 492.758 646.266 482.359C638.146 455.547 618.192 429.445 605.545 404.35C597.273 387.934 582.923 320.489 582.923 302.009C582.923 302.009 564.233 362.465 560.406 371.677C559.543 378.128 558.679 384.581 557.816 391.031C554.209 397.351 550.601 403.673 546.994 409.993C518.026 485.287 490.333 560.768 469.056 606.171C469.056 606.171 594.676 246.918 595.742 244.039C595.742 244.039 528.941 262.08 494.695 270.519C494.695 270.519 509.522 253.511 513.437 249.939C528.072 236.587 535.898 211.507 531.472 196.001C531.472 196.001 527.527 169.215 517.307 161.11C488.944 138.617 484.268 153.089 471.739 136.55C471.739 136.55 468.401 110.541 455.127 102.573C443.777 96.0028 417.803 83.4477 388.369 85.1586C370.707 86.3836 372.98 91.6123 360.468 95.8936C347.474 96.6569 339.872 91.4914 331.058 90.884C298.138 86.1005 264.316 114.597 267.211 121.102C269.954 125.701 270.251 132.804 272.994 137.403C273.366 145.415 272.478 144.22 273.748 156.011C274.447 164.467 292.315 169.875 297.997 169.875C297.997 161.263 301.368 159.11 306.173 153.148C319.257 136.913 331.934 143.264 360.076 149.437C367.957 151.166 380.085 151.549 385.935 157.985C393.101 165.871 391.117 195.998 407.221 193.225C429.398 182.957 415.062 171.197 424.565 173.902C440.744 183.068 403.45 196.245 403.45 201.814C406.553 209.109 410.659 207.639 416.27 213.98C421.881 220.321 418.098 242.88 427.287 246.43C444.471 253 446.411 257.449 454.619 258.233C459.087 258.659 463.726 255.493 467.548 258.352C468.699 261.693 471.908 264.394 473.06 267.736C476.073 269.182 479.088 270.629 482.102 272.075C482.135 272.857 480.367 276.96 480.367 276.96C480.367 276.96 368.65 311.909 336.337 322.763C340.384 319.437 395.633 296.031 399.68 292.705C409.569 281.736 421.218 270.225 419.769 259.665C419.328 255.312 418.888 250.957 418.447 246.604C413.724 253.04 407.43 259.715 400.434 266.941C383.181 275.642 357.452 292.799 336.403 289.779C319.791 287.396 323.665 253.123 331.678 244.955C343.722 232.678 351.211 243.609 361.905 243.609C361.905 243.899 361.905 244.188 361.905 244.477C360.465 246.119 328.834 248.792 328.834 242.698C334.18 238.783 345.78 237.374 352.101 240.095C352.101 240.413 352.101 240.731 352.101 241.05C351.847 241.31 351.593 241.57 351.339 241.83C342.28 242.843 333.218 243.855 324.16 244.867C325.87 228.963 311.583 227.563 312.206 225.431C313.679 224.809 315.32 222.535 316.793 221.913C317.318 222.477 317.844 223.041 318.369 223.605C318.369 224.719 318.369 225.832 318.369 226.946C314.723 231.653 302.761 227.147 306.38 222.347C315.332 210.474 314.197 195.004 314.468 194.657C317.161 191.967 320.451 192.536 323.144 189.846C324.284 189.192 340.108 184.673 340.108 188.216C340.615 189.619 340.087 189.613 340.108 190.363C336.768 192.097 328.411 194.06 325.78 191.794C325.459 192.009 327.28 189.308 327.288 188.932C333.662 187.14 335.011 188.192 334.829 190.363C333.723 193.375 318.153 191.079 314.468 191.079C309.766 182.983 332.067 170.319 337.622 170.319C359.036 169.547 314.457 186.617 306.329 185.16C301.078 179.485 301.721 173.391 300.895 170.324C300.895 170.324 302.13 195.458 296.371 204.676C292.527 214.612 289.656 227.661 285.813 237.597C284.793 248.945 290.339 257.135 285.813 277.676C282.893 292.935 283.464 296.77 280.535 312.028C280.535 312.028 262.09 333.693 245.847 347.096C237.523 356.926 233.315 357.266 228.675 364.424C215.401 373.999 202.122 383.577 188.847 393.151C179.718 400.435 169.921 408.225 157.654 410.334C155.69 410.739 153.725 411.143 151.762 411.549C151.762 411.549 153.437 437.723 154.403 445.838C157.479 471.669 157.619 502.508 157.619 528.162C163.676 521.959 200.052 484.015 204.372 480.212C211.534 472.923 220.586 461.737 227.749 454.448C274.933 396.689 315.493 344.552 329.55 322.048C322.236 315.558 310.701 309.752 303.911 304.155C326.255 314.506 321.329 313.167 331.058 318.469C331.058 318.469 346.781 293.122 348.402 291.989C347.971 292.847 326.354 337.194 313.956 358.421C307.818 370.823 301.678 383.229 295.541 395.631C295.442 395.619 295.343 395.606 295.245 395.595L227.761 530.92C227.761 530.92 250.6 529.209 260.174 528.878C260.596 523.979 259.823 518.086 270.732 513.849C275.629 513.223 287.082 508.642 286.665 521.428C286.493 523.017 287.827 526.015 279.781 526.015C277.242 524.424 277.942 524.991 277.518 520.29C281.94 512.747 288.343 515.106 294.108 509.555C300.871 503.043 304.149 495.97 306.173 487.369C307.684 480.951 309.944 475.478 309.944 468.761C305.796 465.19 302.305 469.768 298.793 472.773C297.036 473.677 295.279 474.582 293.522 475.486C289.783 477.774 283.808 481.782 278.272 481.643C274.058 479.826 275.322 471.526 276.764 468.761C280.035 462.489 287.379 462.673 288.076 457.311C288.801 451.726 284.892 451.878 283.551 447.291C283.297 445.248 282.409 444.17 282.155 442.128C281.538 436.847 284.116 432.901 286.092 428.187C291 416.477 296.088 407.811 310.731 406.763C319.748 406.117 325.553 412.044 324.512 420.756C323.178 423.685 321.844 426.615 320.51 429.544C319.833 432.148 319.156 434.751 318.479 437.354C316.301 441.678 311.232 446.846 305.969 446.846C304.654 444.583 302.106 440.372 304.826 438.06C305.838 436.616 310.008 433.469 312.065 435.239C312.192 435.835 312.319 436.432 312.446 437.028C312.362 437.101 312.276 437.174 312.192 437.246C310.434 438.385 308.677 439.524 306.921 440.663C306.899 441.567 306.878 442.472 306.857 443.376C307.531 445.108 309.87 445.448 309.144 447.931C306.223 452.125 303.302 456.321 300.381 460.515C299.894 463.019 301.333 464.273 301.333 465.016C306.762 467.326 314.446 463.77 320.446 463.77C320.401 466.654 296.581 524.201 293.776 528.588C289.271 530.23 226.4 537.409 216.367 538.135C243.591 477.779 284.25 398.432 284.305 398.625C289.301 397.615 353.454 389.363 353.681 389.321C353.169 391.518 326.01 456.576 322.542 465.451C325.898 460.939 295.899 539.165 295.899 539.165C295.899 539.165 218.546 547.19 215.889 553.915C212.954 564.831 208.024 615.17 199.847 622.632C199.847 622.632 173.069 622.821 116.708 621.916C116.708 621.916 113.792 373.394 116.5 374C113.655 374.014 -2.38826 373.982 -12.5 374" stroke="#0E0C0E" stroke-width="2" stroke-linejoin="round"/>
</svg>
