<svg width="1200" height="720" viewBox="0 0 1200 720" fill="none" xmlns="http://www.w3.org/2000/svg">
<rect width="1200" height="720" fill="white"/>
<path d="M-32 373.5H175C179.019 379.132 161.34 336.561 157.948 309.504C156.696 297.52 155.985 285.327 156.558 277.549C157.464 272.339 158.371 267.127 159.278 261.917C160.386 256.562 161.494 251.205 162.602 245.85C165.381 240.349 168.162 234.847 170.941 229.346C173.973 218.445 173.218 206.735 175.886 198.113C177.833 191.827 183.612 166.789 194.723 156.79C212.112 141.142 224.597 138.167 246.747 131.637C254.642 129.441 275.603 127.699 290.698 128.044C320.804 129.325 334.929 132.039 341.825 133.434C351.238 135.338 350.487 138.326 377.704 158.587C382.114 162.653 415.182 192.811 419.592 196.878C418.498 195.361 454.903 240.503 462.019 251.114C493.731 312.051 495.972 386.998 490.722 399.336C472.764 441.535 457.486 444.322 457.486 463.934C457.366 463.934 459.449 469.405 459.328 469.405C443.916 467.893 432.52 448.683 424.251 448.683C420.585 448.054 399.734 491.231 396.818 493.454C397.221 482.302 418.685 446.545 418.965 442.455C418.622 442.437 405.852 428.101 405.51 428.083C404.074 431.77 388.393 478.388 384.88 478.388C389.31 464.355 393.232 448.609 397.663 434.576C401.419 418.743 403.734 403.349 406.407 387.658C408.986 379.344 413.38 372.137 415.447 363.706C413.112 359.448 414.762 348.152 414.479 340.945C422.983 310.672 390.934 320.375 405.639 334.793C412.246 336.682 409.044 337.063 415.248 333.649C415.59 330.2 415.931 327.327 416.274 323.877C414.101 320.943 406.313 321.569 402.819 321.182C384.607 319.164 386.532 376.832 386.122 379.837C385.157 380.273 384.418 335.136 383.342 320.251C382.244 305.056 373.25 287.329 373.25 272.811C369.222 273.845 365.193 274.881 361.165 275.916C361.165 275.734 361.165 275.553 361.165 275.371C364.81 272.756 368.457 270.142 372.102 267.528C367.329 268.181 362.555 268.835 357.781 269.488C361.85 267.455 365.919 265.421 369.988 263.388C369.988 263.388 334.399 196.336 317.608 211.588C316.667 212.724 320.37 215.522 320.298 216.079C322.301 217.889 334.526 218.614 332.856 213.385C328.96 208.697 315.273 209.915 312.226 214.283C312.226 214.283 331.804 247.599 338.612 262.248C342.749 271.148 344.859 278.913 346.31 287.945C346.473 288.956 349.263 302.261 353.486 308.606C354.933 309.46 356.418 311.251 359.765 312.199C350.589 312.286 341.682 289.992 339.518 284.384C333.392 268.503 312.359 226.133 296.787 215.329C291.716 211.811 270.134 191.586 264.417 201.907C264.359 202.879 263.375 203.642 263.789 206.198C265.738 209.11 278.452 218.156 281.681 211.361C285.082 202.131 268.902 195.012 263.789 201.706C255.301 212.821 299.001 258.125 311.581 274.119C314.94 287.156 318.878 302.577 322.092 315.793C318.064 305.121 311.995 293.85 307.966 283.178C295.846 263.751 280.691 240.354 266.48 223.266C263.071 219.165 254.013 218.832 252.129 227.757C251.223 231.241 251.222 230.08 252.129 231.351C253.148 234.466 256.587 236.383 262.892 232.249C266.548 228.365 265.991 223.092 256.614 221.469C234.148 237.69 291.595 301.548 291.595 322.979C282.173 304.747 271.551 284.759 262.128 266.527C261.811 266.501 261.495 266.475 261.179 266.449C256.325 269.389 253.082 327.491 256.614 334.658C256.614 334.658 258.748 348.541 260.201 355.319C257.3 383.447 264.653 457.868 275.45 481.981C275.45 481.981 285.17 495.073 292.493 502.643C292.535 502.655 297.262 506.463 296.977 507.134C296.646 507.225 299.14 506.926 302.359 505.338C302.359 505.338 317.406 496.185 328.858 492.463C347.04 486.671 368.575 484.677 387.571 484.677C387.571 492.703 406.026 504.008 409.873 507.092C414.321 510.658 445.047 541.479 462.916 559.237C466.148 562.449 480.531 574.43 485.34 580.796C477.996 582.605 279.909 579.746 241.799 581.361C241.799 557.113 373.509 493.03 383.983 489.168C368.978 482.624 232.236 562.363 223.426 580.796C223.426 568.378 262.945 536.883 262.945 529.982C262.945 530.099 262.945 530.215 262.945 530.332C262.945 530.332 244.101 509.205 236.922 500.439C239.138 502.526 266.956 526.606 269.171 528.694C271.151 527.546 280.15 519.871 281.701 519.562C284.895 517.163 289.298 515.822 292.493 513.423C286.534 508.01 259.138 478.144 250.259 487.484C248.119 489.735 246.88 493.319 248.316 496.237C251.104 499.589 260.061 504.171 264.502 501.762C264.876 499.907 265.251 498.052 265.625 496.198C262.914 491.945 259.94 489.857 254.661 489.857C254.114 491.4 253.568 492.943 253.021 494.486C257.602 498.607 267.184 493.991 266.48 488.27C266.047 484.749 217.011 435.564 216.25 435.269C214.482 433.624 182.883 460.198 180.552 464.569C174.38 471.623 168.207 478.679 162.035 485.733C153.015 492.178 145.44 500.69 136.42 507.134C125.566 523.42 123.221 529.616 106.183 544.129C94.7809 553.841 61.9719 560.861 61.9719 580.796C61.9719 562.234 82.5645 556.706 93.4502 547.669C110.666 533.378 120.894 521.532 133.729 503.541C134.738 502.293 160.262 483.224 160.591 481.512C170.114 472.645 174.956 463.009 175.886 461.32C175.886 461.32 179.473 419.567 181.329 400.22C181.997 400.22 207.269 386.362 214.308 384.964C217.163 385.108 237.765 383.002 244.056 383.167C246.873 385.388 256.322 388.407 256.614 388.556C245.534 374.343 211.046 382.609 209.074 383.167C206.805 382.648 186.845 396.152 180.372 397.539C180.372 397.539 179.757 382.915 178.577 376.878C177.259 361.374 178.812 345.019 177.681 340.047C174.602 334.821 167.479 313.93 166.917 312.199C164.559 308.528 169.853 291.386 172.049 281.112C174.255 270.791 175.587 240.867 186.65 235.842M186.65 235.842C187.021 235.699 189.605 235.396 190.555 235.802C190.775 236.15 189.831 239.487 190.238 241.232C188.612 241.984 185.585 244.972 183.959 245.724C180.264 243.056 184.007 237.632 186.65 235.842ZM186.65 235.842C187.398 235.804 190.863 235.423 191.611 235.385C195.109 237.748 187.547 305.404 187.547 313.097C187.547 315.57 188.769 336.905 190.307 336.667C190.652 329.937 189.723 313.124 190.238 310.403C191.2 315.059 191.845 315.851 192.929 315.793C193.387 316.099 200.006 315.793 205.487 315.793C205.357 314.415 205.626 310.222 205.487 308.606C200.12 308.982 195.413 308.63 190.047 309.006C190.047 288.713 196.297 237.572 207.28 217.876C209.839 213.289 213.743 197.583 218.923 197.583C219.379 197.234 222.074 197.347 223.426 198.113C223.771 200.213 224.875 200.504 225.22 202.604C224.688 203.409 223.958 206.292 223.426 207.096C216.4 208.976 217.002 206.295 217.147 201.706C218.711 200.612 231.304 183.82 221.643 228.94C216.215 254.287 208.178 275.864 208.178 302.318C208.451 312.056 207.255 321.715 207.528 331.454C207.528 331.454 210.424 268.286 224.189 239.328C227.623 232.105 231.025 215.48 241.238 215.48C246.024 216.56 244.986 227.403 238.735 225.984C238.375 223.597 238.015 221.211 237.656 218.825C239.339 218.254 241.022 217.684 242.705 217.114C249.914 226.739 239.909 241.122 237.439 250.455C230.138 278.044 220.995 305.578 220.995 334.45C221.916 327.564 222.837 320.676 223.758 313.791C228.792 294.133 238.124 266.28 243.159 246.622C249.014 241.91 255.91 248.36 252.461 257.34C251.051 257.664 247.26 257.078 245.85 257.402C230.5 243.637 263.39 209.859 246.747 199.909C242.172 201.907 231.589 205.998 227.014 207.994C224.142 205.386 239.72 184.033 241.365 181.045C250.627 181.045 299.827 206.38 303.176 211.784C306.212 209.475 309.248 207.166 312.283 204.858C328.358 199.511 343.699 207.371 355.488 218.475C365.055 230.262 374.625 242.052 384.191 253.839C392.259 268.889 383.85 277.804 400.722 277.804C400.722 277.804 402.501 302.476 403.39 314.81C405.49 319.84 416.786 315.686 419.145 323.447C422.973 336.04 420.635 350.58 425.231 363.558C428.009 371.405 428.407 398.763 442.409 395.187C444.179 393.553 445.948 391.919 447.718 390.285C447.718 390.285 446.519 411.097 452.896 415.679C455.283 414.785 457.672 413.89 460.06 412.995C463.901 433.47 467.744 453.951 471.584 474.426C478.964 476.383 486.347 478.342 493.727 480.3C494.516 482.432 471.483 518.738 471.886 519.711C471.958 520.657 470.174 526.039 470.246 526.985C470.246 526.985 497.463 501.016 507.212 483.305C519.915 481.113 532.621 478.921 545.324 476.729C580.793 469.218 642.013 444.437 657.676 494.821C663.15 512.429 628.743 525.715 619.434 537.032C612.313 545.084 605.19 553.14 598.069 561.192C598.069 561.192 644.974 532.945 668.424 518.824C678.12 527.632 683.53 568.386 683.53 583.406C632.838 583.406 580.796 587.608 530.606 587.608C561.711 587.608 593.01 593.282 624.657 591.732C647.761 588.244 676.915 590.476 699.925 586.579C699.925 586.579 701.649 401.298 699 374H1204" stroke="#0E0C0E" stroke-width="2"/>

</svg>
