<svg width="1200" height="720" viewBox="0 0 1200 720" fill="none" xmlns="http://www.w3.org/2000/svg">
<rect width="1200" height="720" fill="white"/>
<path d="M0 374C25.0096 374.374 73.0858 373.626 98.0953 374M98.0953 374C98.0352 377.477 98.0953 373.962 98.0953 374ZM98.0953 374C98.1254 378.631 98.0652 381.389 98.0953 386.02C100.361 409.021 121.981 583.153 123.456 583.298C131.067 587.11 136.667 586.171 171.635 586.237C171.635 586.237 171.319 584.573 171.045 583.874C173.615 581.538 170.628 579.442 171.635 576.784C172.127 576.631 173.502 575.757 173.994 575.603C185.853 574.431 204.532 576.123 230.342 566.873C208.452 570.09 161.378 571.39 173.747 571.197C172.315 571.197 170.183 571.617 169.007 570.557C168.093 568.906 167.206 563.348 168.096 561.424C169.344 558.727 172.225 558.671 171.675 555.436C171.265 553.023 168.668 547.836 170.455 545.473C170.455 545.473 174.381 503.632 176.387 481.877C176.387 481.877 188.226 493.544 199.946 492.303C225.103 489.639 243.891 472.089 247.711 456.956C193.703 495.104 188.573 483.342 176.727 479.626C177.306 472.618 181.311 468.137 184.078 463.174C206.146 466.055 220.548 454.803 224.718 449.176C201.125 467.888 187.759 462.693 160.428 453.902C159.163 452.818 135.889 439.69 131.582 424.225C123.9 396.633 134.864 362.672 145.291 337.63C148.333 330.325 163.7 293.753 156.299 289.074C144.775 273.067 127.495 262.681 152.145 237.482C171.653 217.541 188.304 262.012 168.172 262.795C164.331 263.302 164.828 260.55 163.967 259.535C163.426 256.119 169.392 252.446 173.404 252.446C176.022 254.823 169.275 260.061 169.275 263.08C171.714 266.336 174.252 264.99 176.943 266.624C202.677 285.494 180.027 320.265 180.027 338.615C180.027 338.615 175.092 408.834 175.763 417.274C176.762 413.926 177.283 410.766 178.465 408.04C189.202 403.619 208.194 405.916 212.08 408.365C248.464 428.569 263.637 464.707 263.702 462.245C253.719 428.606 217.207 405.663 211.153 405.458C213.283 399.528 211.092 391.699 217.808 383.47C211.717 337.231 233.573 320.493 245.822 310.876C232.857 331.569 229.425 345.976 228.305 354.039C222.656 394.716 254.074 428.633 294.464 428.633C284.175 428.633 251.319 405.429 246.781 397.291C243.135 395.634 241.817 400.888 236.583 392.903C234.054 389.045 227.533 372.818 233.901 370.515C234.607 370.535 235.313 370.555 236.019 370.575C242.052 377.865 242.411 378.579 244.034 376.306C242.809 372.088 241.583 367.868 240.358 363.65C242.797 359.949 244.693 355.989 247.132 352.288C248.324 344.109 250.06 336.187 251.252 328.009C254.11 325.263 256.97 322.516 259.828 319.77C262.2 316.83 263.148 313.066 266.815 311.413C280.765 310.04 293.933 311.124 307.883 309.751C309.042 313.359 308.373 296.341 264.826 303.253C259.882 304.447 254.199 306.376 248.311 308.57C254.213 301.207 265.225 296.502 277.213 294.982C286.306 293.829 309.347 299.358 313.192 309.161C318.772 311.681 327.371 312.495 330.159 319.024C331.169 321.389 333.537 343.265 330.259 348.009C323.978 348.411 329.757 319.188 311.351 313.412C314.519 318.019 317.687 322.626 320.854 327.233C322.201 333.978 323.548 340.726 324.894 347.472C325.274 347.472 322.93 345.194 320.854 345.381C316.374 347.161 309.63 347.571 309.63 347.412C308.29 346.194 310.11 336.993 311.417 336.993C313.895 341.108 329.377 351.318 326.384 355.113C324.117 359.233 313.57 356.57 313.57 352.217C314.175 351.168 322.146 349.745 322.643 352.934C320.508 363.68 305.988 350.04 305.225 345.381C303.338 347.58 302.102 350.089 300.215 352.288C298.723 348.957 298.007 340.13 298.007 338.935C284.619 335.177 266.788 340.922 267.186 343.426C268.129 348.679 274.513 341.391 297.266 341.063C297.266 358.498 270.697 357.777 272.046 351.68C276.141 348.737 280.4 346.38 285.47 346.38C286.108 346.304 288.693 347.237 289.599 348.152C292.229 351.82 286.539 354.785 283.669 354.785C277.113 347.706 293.66 344.036 297.511 352.636C299.271 356.567 295.755 358.022 295.755 361.173C295.833 362.277 295.91 363.381 295.987 364.486C302.056 366.568 306.309 363.05 306.114 362.331C306.513 360.729 303.413 357.799 299.626 361.149C298.757 362.691 302.76 365.174 304.53 365.71C306.281 365.943 305.202 366.268 312.012 366.466C313.993 366.439 317.322 359.044 310.832 362.331C306.361 365.819 314.86 366.252 315.689 366.068C323.38 374.416 322.527 387.775 319.09 396.596C307.796 408.812 287.908 399.35 287.908 385.052C289.319 377.062 304.708 370.535 311.422 374.147C316.569 376.952 323.231 387.152 314.961 396.596C315.196 380.903 304.638 371.83 290.189 385.371C289.807 390.854 308.937 395.809 312.012 395.415C311.928 402.334 315.3 402.494 317.32 404.276C329.096 404.127 333.458 390.241 330.296 359.377C335.129 366.915 334.309 375.259 335.015 380.054C335.549 390.687 333.007 406.372 326.757 414.91C319.294 425.107 309.224 428.819 298.446 428.498C301.255 430.317 304.344 430.286 309.063 430.861C304.009 437.689 296.368 445.236 293.727 453.902C294.566 459.234 300.643 463.163 302.575 476.942C292.222 473.161 278.517 468.42 268.164 464.639C268.164 471.386 300.093 483.062 304.934 478.715C307.942 470.587 296.245 457.172 297.238 454.491C305.139 450.923 351.651 469.476 352.309 476.49C353.601 490.267 329.613 488.758 321.449 488.758C320.952 490.676 324.94 502.711 327.937 505.891C321.436 509.437 321.551 515.164 319.09 520.069C317.054 543.883 312.206 566.451 310.832 576.194C296.668 575.644 258.22 569.393 246.542 567.923C246.378 570.011 308.603 578.512 309.653 579.738C310.69 581.365 312.612 587.984 313.781 590.372C313.599 575.098 324.087 520.071 328.893 510.282C339.408 492.771 390.923 515.506 405.284 515.506C405.284 515.466 405.284 515.426 405.284 515.386C401.781 513.814 367.455 505.07 367.455 501.164C371.288 501.164 375.497 500.178 378.827 498.073C380.957 494.482 383.088 490.889 385.217 487.298C394.682 483.041 396.208 481.058 401.075 472.216C401.284 472.167 403.201 468.878 408.742 472.216C408.742 472.216 398.78 416.124 406.383 387.734C409.584 375.781 420.579 367.376 422.557 354.846C422.557 354.846 425.851 336.082 440.003 326.293C451.088 315.943 479.831 322.853 491.907 331.019C495.36 334.081 491.509 355.064 492.292 364.273C493.649 370.159 498.888 372.124 501.344 374.737C502.327 377.761 502.7 378.323 503.683 381.348C504.723 383.783 506.932 399.55 511.371 399.55C511.371 399.59 510.191 397.147 510.191 397.187C506.719 399.332 479.444 367.766 462.491 359.527C460.256 356.99 462.479 353.05 462.424 352.363C461.806 352.363 463.782 350.413 456.497 358.214C457.16 355.379 459.279 350.394 458.484 349.707C457.159 362.721 423.158 368.463 421.129 368.239C422.972 366.472 428.514 364.268 446.511 357.626C448.831 375.898 446.286 380.054 432.335 380.054C430.117 379.885 427.026 379.458 424.809 379.289C421.985 379.077 427.319 374.253 439.413 375.328C442.057 376.052 441.247 377.945 439.278 378.422C438.952 378.824 432.76 380.108 433.351 377.497C434.972 375.546 445.345 374.165 447.081 376.51C447.169 377.296 444.795 380.738 444.721 380.645C438.343 387.112 433.209 394.973 427.854 397.914C427.854 402.893 429.813 406.664 434.694 406.049C437.985 404.634 435.82 400.228 432.192 400.541C429.002 401.982 433.283 408.767 435.874 409.003C441.304 409.495 449.081 399.128 454.748 404.276C457.242 411.233 441.771 412.518 444.345 407.377C458.74 396.067 464.569 418.853 464.186 427.317C463.29 447.093 453.741 453.902 435.284 453.902C429.923 453.902 422.292 453.547 418.086 449.764C413.676 445.796 415.763 424.532 422.898 421.409C427.654 419.327 431.985 417.466 436.993 417.466C456.953 417.466 464.106 443.497 460.057 447.994C454.091 453.158 413.748 447.122 415.371 433.883C416.764 422.526 441.208 418.907 454.748 424.954C456.863 425.898 466.534 429.78 468.314 427.908C472.713 423.28 455.663 397.231 460.057 383.599C465.618 366.346 487.127 381.38 487.127 393.855C486.153 398.97 466.513 393.244 468.616 385.855C473.779 380.602 481.729 386.952 481.729 392.272C480.005 396.668 471.654 391.487 473.484 388.243C477.983 380.068 488.994 392.652 492.497 394.233C498.234 396.822 504.082 398.487 508.915 402.84C512.943 410.112 486.819 447.744 482.47 453.902C470.42 470.967 449.868 509.76 409.922 479.896C414.217 495.906 447.226 495.883 457.697 490.53C486.853 472.587 488.582 448.729 506.366 423.572C506.366 423.572 511.141 411.902 514.32 406.639C518.863 396.6 527.276 357.274 526.706 345.198C526.706 345.198 522.593 327.85 519.629 323.93C502.055 300.696 472.809 309.43 451.904 316.91C453.149 313.935 460.102 309.115 464.775 306.207C482.251 297.455 503.862 303.618 518.449 313.296C527.596 322.586 532.031 337.23 537.335 347.921C540.351 354 548.126 364.055 549.709 371.193C550.882 376.477 545.896 399.219 544.884 409.374C543.077 417.646 541.489 426.725 539.682 434.997C540.685 449.671 541.207 485.736 542.756 496.955C543.4 498.472 544.937 500.828 545.581 502.346C545.581 502.346 529.9 504.058 519.629 514.752C493.323 514.306 490.905 520.181 477.751 517.116C474.527 516.364 470.623 508.473 450.229 507.215C444.507 506.863 427.719 511.022 429.386 520.069C431.949 524.706 444.95 524.026 444.95 517.04C444.787 507.049 433.442 513.615 433.515 515.343C432.002 521.854 442.952 516.525 442.952 516.525C442.952 516.525 438.435 502.425 407.563 517.706C387.913 527.433 358.608 569.394 358.608 592.145C363.062 593.544 373.304 574.294 379.251 575.603C382.518 578.571 377.542 591.308 389.278 592.145C389.978 588.171 390.721 582.445 391.421 578.471C398.642 579.88 397.704 595.197 404.614 592.145C405.039 585.118 405.612 576.594 406.038 569.568C408.029 556.978 413.331 539.985 422.898 531.294C438.107 531.194 434.918 526.811 448.26 527.159C450.112 530.29 441.24 544.501 440.003 549.608C437.54 559.78 436.53 575.226 436.464 585.646C436.187 589.923 436.676 594.184 442.51 595C458.099 594.361 452.32 573.666 459.467 573.24C461.633 577.299 467.917 584.541 470.084 588.6C472.841 591.298 471.547 581.182 474.212 576.784C476.695 576.3 478.011 581.081 485.419 586.828C492.827 592.574 502.742 595.92 500.636 576.067C499.974 558.831 490.838 552.208 484.239 538.384C480.641 533.493 475.357 523.487 472.623 518.575C485.72 526.405 502.313 526.204 513.181 521.825C514.345 535.878 512.781 550.472 519.039 564.969C531.292 593.477 551.528 589.191 572.712 589.191C572.712 589.191 634.72 551.983 650.569 502.346C653.492 493.068 665.377 475.137 669.443 459.81C673.123 427.079 601.485 277.112 585.87 274.384C583.905 276.125 584.706 278.869 581.617 279.971C581.617 279.971 569.941 279.568 564.105 279.367C556.465 282.344 549.092 286.096 541.452 289.074C541.452 285.058 538.6 281.142 538.6 278.248C543.54 276.03 551.523 268.638 555.835 261.009C561.432 266.093 573.399 277.085 581.836 273.3C583.261 272.022 583.763 269.309 582.905 267.614C580.319 261.186 569.056 254.954 563.087 260.337C562.672 261.561 562.259 262.785 561.845 264.009C564.286 268.422 580.589 278.22 584.866 271.778C587.457 264.747 577.019 261.993 577.019 256.352C585.92 248.267 589.201 273.123 593.356 273.123C593.426 262.764 582.699 250.43 574.213 249.838C574.213 249.838 566.105 223.615 567.994 211.091C572.305 182.504 607.626 147.916 565.045 127.2C540.281 115.152 478.7 155.479 506.653 178.007C519.452 186.074 524.593 174.672 524.53 174.742C526.728 161.842 511.728 161.936 512.752 173.949C514.302 178.499 516.733 178.697 516.09 184.506C515.205 192.502 503.979 200.667 505.542 209.539C506.399 214.406 512.006 215.485 514.085 219.44C516.015 227.311 518.878 235.122 520.808 242.993C530.066 262.426 532.868 269.461 533.783 272.019C534.203 273.56 535.19 272.613 537.415 272.45C537.415 285.71 542.914 303.097 547.35 315.068C547.35 315.068 561.022 344.877 571.191 370.299C598.413 460.549 594.356 458.674 587.458 463.945C583.03 468.303 573.541 474.628 567.404 481.669C563.987 485.589 555.803 500.515 550.131 500.515C550.131 500.515 694.5 405.57 694.5 374C697.524 374 1192.05 374 1200 374" stroke="#0E0C0E" stroke-width="2" stroke-linejoin="round"/>
</svg>
