<svg width="1200" height="720" viewBox="0 0 1200 720" fill="none" xmlns="http://www.w3.org/2000/svg">
<rect width="1200" height="720" fill="white"/>
<path d="M-18 373.011H101L104.852 507.246C118.927 499.998 215.292 447.674 215.292 447.674C219.262 453.914 229.597 468.44 233.566 474.68C256.895 524.544 277.374 591.838 243.529 622.146C237.481 627.562 229.075 631.416 221.717 634.727C217.814 637.376 214.428 638.038 210.525 640.686C208.791 643.191 209.784 645.203 209.673 646.466C218.183 655.977 221.083 647.67 230.388 647.041C234.927 648.302 240.012 648.77 246.279 648.629C251.893 646.937 261.34 640.393 266.142 637.509C273.255 633.237 284.603 635.141 292.362 635.921C298.704 636.558 312.047 639.612 315.656 629.129C319.145 618.994 315.856 610.142 311.791 600.83C302.266 586.108 299.362 571.608 293.951 557.286C287.134 535.866 287.866 519.91 289.184 500.891C290.217 496.009 294.683 472.98 295.54 465.148C297.407 453.141 289.552 433.2 290.297 435.53C290.297 435.53 274.151 431.707 272.649 430.003C272.639 428.386 278.479 414.386 279.109 411.427C279.109 411.427 270.263 400.477 272.498 407.96C271.222 411.145 269.651 411.772 266.937 410.342C255.477 403.9 259.096 390.751 252.193 385.198C254.85 393.718 258.869 401.695 262.17 409.548C261.545 409.651 260.41 411.033 259.786 411.137C249.803 404.643 248.354 393.005 241.944 386.575C244.397 395.434 253.523 406.778 252.728 409.415C221.374 405.178 228.005 332.502 228.005 332.502C228.005 332.502 217.38 328.879 210.525 337.268C193.571 358.016 205.348 393.986 217.676 419.874C217.676 419.874 255.886 484.841 250.252 506.451C247.435 496.706 243.205 481.917 239.538 472.424C224.877 441.116 204.972 414.821 196.223 380.954C196.223 380.954 190.38 358.967 192.251 338.062C194.53 312.581 212.16 297.479 220.805 308.584C223.34 314.397 225.877 320.211 228.412 326.025C227.576 315.859 220.293 299.668 212.909 298.348C212.909 298.348 201.259 259.628 210.525 234.805C211.424 232.396 216.205 215.742 220.059 215.742C220.059 215.742 212.151 206.794 208.608 202.532C200.421 182.214 194.764 160.693 195.429 137.901C195.773 126.098 201.118 107.104 208.141 97.3925C212.843 90.8905 238.432 68.1135 254.224 68.0038C278.014 67.8386 280.487 73.0238 295.54 77.5353C304.977 80.3638 313.604 78.9071 322.554 83.8896C347.273 97.6515 359.658 130.685 344.006 159.347C340.843 165.14 344.24 169.096 340.474 171.917C330.287 179.544 301.297 173.099 286.8 179.999C277.079 184.625 269.951 186.826 262.964 201.444C262.544 202.74 259.412 211.269 258.991 212.564C253.101 196.252 246.029 190.702 244.69 193.502C243.951 196.834 248.6 206.232 248.179 209.549C247.758 208.208 246.699 206.757 246.279 205.416C243.856 199.805 239.787 186.353 231.977 186.353C227.667 190.241 241.447 207.677 241.512 212.564C229.013 203.134 230.211 182.15 224.032 180.793C221.94 180.485 221.65 180.301 221.648 182.381C220.906 190.235 229.598 208.38 229.598 208.38C218.753 202.691 215.071 170.409 210.525 171.261C210.143 171.789 208.524 172.323 208.141 172.85C210.167 198.413 220.057 206.868 226.416 224.479C226.416 224.479 242.432 236.777 250.32 241.704C246.546 255.58 244.75 282.823 269.092 343.27C271.23 348.579 284.483 373.438 276.471 377.777C275.464 377.857 274.3 379.285 273.293 379.365C270.235 373.621 266.683 366.352 263.624 360.607C264.071 362.706 264.517 364.804 264.963 366.903C269.025 377.055 279.917 387.816 279.917 398.86C279.369 399.422 278.821 399.983 278.273 400.545C277.547 400.58 274.814 400.776 274.087 400.811C268.569 392.419 261.878 383.861 256.361 375.468C256.361 393.482 281.907 405.216 288.389 420.668C290.301 426.366 292.039 430.061 293.951 435.76C293.951 435.76 314.183 441.382 324.187 442.108C324.187 442.108 339.188 492.194 342.417 501.686C345.424 510.524 357.075 541.395 356.454 559.851C355.94 575.157 347.915 593.457 338.445 604.943C332.752 611.847 319.248 621.036 322.554 625.595C324.207 627.076 333.553 623.745 333.553 621.736C332.215 624.728 328.498 627.696 329.539 630.714C331.931 631.771 333.719 631.219 335.809 631.471C338.039 629.705 340.27 627.939 342.5 626.174C341.378 629.269 338.402 632.003 339.135 635.461C345.044 639.445 347.63 629.132 349.994 629.132C349.994 629.132 346.844 641.766 351.157 643.069C357.46 644.719 363.424 642.252 363.87 642.275C363.87 642.275 379.76 629.331 379.76 619.24C379.76 619.24 383.599 590.139 388.5 583.497C398.695 569.684 424.191 571.046 397.255 537.509C390.008 528.63 389.841 526.043 384.527 519.954C369.324 496.042 369.616 468.017 372.933 437.491C372.933 437.491 373.583 395.447 373.583 387.363C373.583 387.363 327.981 305.762 308.434 319.837C285.052 336.673 304.446 375.724 311.76 397.407C314.882 407.738 319.421 418.027 321.127 428.401C313.599 415.342 296.13 374.661 292.362 346.005C290.522 332.017 298.383 317.612 309.047 315.028C319.187 312.57 333.042 323.909 343.212 334.885C350.012 342.224 359.543 359.237 365.402 367.101C372.158 376.171 380.006 389.048 380.006 389.048C380.006 389.048 503.295 392.698 555.352 396.84C600.527 397.861 622.102 394.029 615.811 337.009C615.811 337.009 601.805 304.423 599.845 301.525C590.722 276.894 565.25 211.565 463.98 136.313C442.455 120.317 425.729 108.459 399.623 99.7754C365.94 88.572 346.103 91.8357 343.212 95.0097C343.212 95.0097 361.722 134.988 355.924 149.816C353.781 155.296 350.824 165.381 345.595 172.85C341.212 177.109 337.309 175.233 336.061 175.233C336.061 175.233 342.919 181.524 345.595 186.353C345.417 194.022 337.482 213.001 317.149 193.832C315.614 195.676 312.376 199.94 314.25 202.46C315.707 202.687 317.164 202.915 318.621 203.142C321.987 201.636 318.715 196.652 316.992 195.09C314.181 195.09 307.099 208.606 297.923 201.444C297.908 200.789 297.983 199.784 297.969 199.129C303.662 196.467 309.358 193.804 315.053 191.142C314.146 191.571 310.748 193.073 309.841 193.502C303.612 195.401 302.563 197.162 296.334 199.062C295.457 198.942 291.887 197.885 291.01 197.764C295.41 197.764 287.688 209.783 282.827 210.182C274.174 210.892 268.103 200.714 266.88 199.129C266.88 199.129 269.635 215.298 268.526 211.77C270.023 216.534 277.882 228.987 284.416 232.422C292.892 235.155 331.104 261.603 384.527 286.433C384.527 286.433 381.879 274.988 383.299 269.825C382.45 245.337 388.173 218.656 417.868 218.656C422.966 218.656 435.088 227.107 438.555 231.627C460.361 261.442 425.531 351.431 394.062 342.828C361.925 328.015 273.48 240.165 254.127 243.097C318.896 271.164 396.986 377.5 409.158 412.725C409.158 412.725 646.098 424.894 645.928 424.64C645.928 424.64 658.97 341.803 658.641 339.651C651.664 340.027 625.844 340.386 620.936 340.431C620.936 340.431 620.887 347.496 620.862 351.028C620.862 351.028 684.881 373.099 686.5 374C692.823 374.87 1194.39 373.668 1200 374" stroke="#0E0C0E" stroke-width="2"/>
</svg>
