<svg width="1200" height="720" viewBox="0 0 1200 720" fill="none" xmlns="http://www.w3.org/2000/svg">
<rect width="1200" height="720" fill="white"/>
<path d="M-7.5 374.5H111.53V79.6471L139.838 92.2248L118.607 71H661.171V86.7221L671.393 76.5027V633.064L657.239 623.631L670.607 640.139H120.966L136.692 622.059L113.889 636.995L111.53 545.02L142.197 538.732V618.128H654.094V96.9414H142.926V529.909C184.623 511.731 268.029 475.368 268.029 475.368C266.631 466.484 256.039 411.619 254.641 402.736C251.033 390.55 246.743 363.949 246.743 363.949C247.346 364.346 244.448 367.003 244.419 367.361C217.262 367.361 209.422 283.935 216.897 281.676C224.269 279.177 231.681 287.496 236.409 292.31C262.166 318.54 316.386 328.559 341.137 295.04C344.753 292.147 344.031 287.849 343.957 286.617C335.989 286.617 312.309 314.202 305.752 305.259C303.973 297.393 335.533 305.552 332.487 287.178C331.133 291.124 299.476 306.374 290.642 298.414C290.642 298.044 290.642 297.673 290.642 297.303C302.011 292.148 324.303 296.507 331.881 282.853C331.881 282.509 331.881 282.165 331.881 281.82C317.947 281.82 281.978 298.343 274.032 282.249C274.032 259.24 319.018 247.229 333.981 268.188C327.294 280.1 307.446 273.018 300.695 264.971C299.595 251.122 334.032 258.63 337.991 274.601C337.844 275.713 338.138 278.991 337.991 280.104C326.559 277.257 313.763 275.094 305.752 273.815C293.906 272.743 282.913 273.117 271.825 274.662C275.106 269.049 278.388 263.434 281.669 257.821C289.791 246.645 325.403 206.798 340.293 229.184C340.19 230.177 340.087 231.17 339.984 232.164C335.591 237.44 293.025 244.497 287.585 237.962C282.458 219.487 329.344 217.527 339.013 222.868C362.055 235.597 366.268 284.608 383.334 306.994C391.654 317.907 403.672 328.471 399.58 343.217C398.285 344.236 396.99 345.256 395.695 346.275C392.15 345.335 388.602 344.395 385.056 343.456C384.041 346.699 386.508 349.542 383.598 350.853C377.943 352.549 373.092 343.145 373.092 339.563C371.018 341.946 372.874 345.116 370.8 347.499C370.079 347.472 369.358 347.445 368.637 347.419C358.145 341.159 365.513 311.556 365.513 302.114C367.352 292.212 365.246 281.359 367.085 271.456C376.017 234.019 393.184 226.097 427.633 228.221C440.707 229.026 478.441 229.916 488.708 219.175C488.678 218.845 488.648 218.513 488.619 218.182C482.69 209.27 466.333 209.546 457.513 210.926C419.71 216.844 407.252 211.133 406.157 254.922C405.765 270.629 415.695 316.278 451.222 298.97C451.222 298.599 452.711 296.031 451.222 295.826C438.653 302.687 417.63 292.066 423.059 286.386C427.002 289.02 429.012 291.67 435.496 292.681C467.749 294.007 479.628 282.961 474.812 278.531C474.346 280.033 426.23 295.907 425.045 281.659C437.326 281.659 472.192 288.717 472.192 267.042C472.148 266.95 472.104 266.858 472.06 266.766C465.157 266.766 452.973 269.757 447.647 263.786C447.692 263.018 447.736 262.25 447.78 261.482C452.884 256.855 471.398 257.571 471.398 266.407C463.42 273.641 424.563 277.473 418.983 269.884C415.772 258.576 443.154 253.182 449.413 253.182C481.817 253.182 477.105 293.035 524.35 287.178C534.915 285.312 546.026 283.542 556.59 281.676C575.082 274.738 572.822 265.379 595.12 263.595C600.538 263.162 602.127 252.966 609.273 255.734C612.277 259.518 611.737 259.637 610.678 260.721C601.485 260.721 604.283 262.142 597.479 268.312C586.697 268.312 576.647 276.932 570.066 275.774C556.825 267.771 568.217 248.788 561.308 238.44C553.829 230.739 541.297 236.992 536.163 223.067C536.163 213.322 538.971 207.856 538.504 193.632C537.577 188.985 534.132 179.456 534.132 179.456C523.029 154.391 484.499 167.157 474.026 159.83C458.541 148.996 461.216 128.654 447.291 117.38C440.713 113.23 435.526 121.341 429.205 120.525C425.571 118.433 421.83 115.541 418.197 113.45C409.236 111.672 409.314 118.315 404.043 122.097C397.054 120.786 392.53 118.924 385.541 117.614C384.423 121.082 383.144 123.345 382.026 126.813C379.59 130.111 357.636 118.57 345.855 118.166C317.364 118.166 297.95 145.968 286.094 170.835C284.461 177.824 264.63 202.533 262.997 209.523C257.067 220.961 254.28 235.649 248.35 247.087C244.828 254.047 242.915 281.827 235.635 284.647C234.694 284.607 233.751 284.567 232.81 284.528C227.268 282.875 230.646 271.835 225.826 269.817C219.562 267.193 214.727 274.925 208.248 269.098C204.453 263.45 215.357 257.134 217.684 252.59C217.611 251.173 216.983 246.369 216.91 244.953C213.365 239.665 203.186 252.844 194.094 243.943C181.687 229.561 202.758 221.901 205.476 212.106C206.336 200.36 185.093 208.422 183.872 199.921C182.671 188.032 195.364 180.86 199.782 170.955C199.634 169.896 199.487 168.836 199.34 167.776C195.801 162.496 188.841 162.338 185.522 156.378C184.465 145.88 205.168 138.149 211.171 131.116C218.185 122.9 219.256 100.872 219.256 100.872C234.392 102.204 550.299 100.872 550.299 100.872C561.908 103.533 572.734 105.755 584.111 109.519C589.07 114.134 589.719 116.965 592.014 121.665C596.178 123.704 600.371 124.329 604.506 127.782C607.773 132.839 610.725 139.051 613.991 144.108C620.98 148.794 627.447 155.143 634.436 159.83C637.061 162.528 645.81 193.399 645.444 198.349C644.693 208.524 636.395 216.674 631.291 224.29C632.336 228.606 631.032 229.408 632.077 233.723C630.98 238.89 624.596 246.423 620.282 254.162C615.699 262.385 613.205 270.67 613.205 270.67C613.205 277.078 607.841 289.163 603.769 299.756C597.975 314.833 601.193 328.478 591.188 341.42C588.343 344.845 576.299 358.351 573.103 355.569C565.796 333.941 573.648 302.886 571.53 280.104C567.336 279.225 567.955 349.112 567.955 349.112C567.763 365.885 567.572 382.663 567.381 399.436C563.114 417.017 554.579 452.185 554.579 452.185C550.001 466.375 549.404 483.424 538.378 495.001C537.878 495.491 537.377 495.982 536.877 496.471C553.366 496.471 565.069 433.073 569.014 422.435C569.103 422.435 569.191 422.435 569.279 422.435C569.279 443.729 591.991 487.002 600.624 507.287C604.847 518.117 613.513 535.833 613.513 535.833C599.976 545.563 586.436 555.296 572.899 565.026C573.854 565.782 633.966 526.717 647.017 520.651C647.017 539.224 648.191 610.016 648.367 610.59C647.895 611.604 575.96 609.864 574.675 610.267C572.939 601.688 569.335 585.829 567.598 577.251C557.445 545.234 533.145 498.687 533.145 498.687C526.361 461.939 522.469 424.383 517.273 387.014C516.483 381.33 516.453 350.471 512.794 348.827C511.823 349.026 510.852 349.224 509.88 349.423C505.247 354.617 503.4 358.384 504.692 364.217C504.316 364.702 508.35 370.368 509.042 370.911C510.719 370.302 512.397 369.693 514.074 369.083C518.02 363.405 519.567 347.973 512.556 343.778C492.374 337.72 491.507 368.886 491.325 376.794C490.763 401.158 490.156 425.374 495.313 449.554C495.775 453.659 499.26 479.777 504.692 498.64C500.095 492.09 495.56 458.331 493.281 449.197C486.536 422.152 480.669 382.563 477.171 366.575C475.187 357.509 480.487 329.059 474.026 324.125C467.995 324.125 468.15 330.977 467.735 335.917C468.05 339.75 468.895 342.926 471.248 343.132C475.501 343.132 477.122 341.652 479.53 337.489C480.606 332.432 478.365 321.412 471.667 320.195C464.048 318.328 451.144 348.697 452.009 361.858C453.701 367.617 451.103 376.538 452.795 382.297C455.816 400.116 457.069 418.015 460.658 435.752C466.162 462.958 478.052 516.243 478.052 516.243C474.77 505.293 474.455 502.168 464.278 478.35C460.836 466.595 457.024 455.368 453.581 443.613C444.959 421.624 434.682 399.569 426.06 377.58C423.258 370.933 406.739 342.951 397.752 364.217C397.752 367.323 401.554 369.388 404.043 370.505C408.559 371.083 415.886 366.548 417.538 362.583C416.439 358.487 413.75 354.178 410.333 352.425C388.482 347.961 395.393 379.939 395.393 379.939C395.775 380.918 409.988 423.992 411.967 430.687C418.742 453.607 427.548 480.559 430.772 503.333C431.185 502.116 431.597 500.897 432.009 499.68C443.687 499.68 453.339 493.442 464.721 490.028C465.25 490.028 464.706 487.91 466.353 496.383C462.889 505.753 435.53 516.772 431.523 505.716C431.905 506.789 432.288 507.862 432.671 508.934C435.256 515.909 438.641 540.304 438.641 540.304C436.787 535.935 432.632 532.095 430.778 527.726C427.33 519.06 425.592 510.657 423.701 500.999C418.696 475.438 418.791 456.135 409.547 431.035C406.819 423.628 403.916 406.681 397.869 403.04C396.721 403.04 395.573 403.04 394.426 403.04C393.035 404.509 390.338 405.292 389.103 410.597C390.498 419.036 393.863 421.793 397.752 420.03C401.382 417.836 399.9 403.824 396.966 401.163C394.642 400.356 392.888 401.144 392.248 401.163C383.491 408.253 389.137 437.543 389.889 453.832C391.37 485.911 393.76 518.971 397.869 550.855C400.164 566.145 402.46 581.44 404.755 596.73C404.667 596.71 404.579 596.69 404.491 596.67C402.659 583.444 400.827 570.215 398.995 556.99C395.145 524.013 392.112 491.048 389.393 457.734C388.639 448.498 387.189 423.772 383.302 415.792C382.433 415.498 381.369 415.651 380.389 416.446C373.326 422.851 371.251 502.595 371.251 502.595C371.251 469.057 372.924 434.677 374.162 401.163C374.515 391.621 375.226 361.526 372.59 356.356C372.237 356.137 365.866 355.788 365.513 355.569C363.416 356.165 361.808 357.762 360.795 360.286C361.768 369.183 361.026 368.324 365.513 370.505C372.145 370.634 374.96 364.294 371.017 354.783C357.841 345.949 350.142 370.733 349.786 375.222C347.585 403.031 350.573 436.017 350.573 464.052C350.374 478.111 352.246 492.35 352.047 506.409C352.141 494.873 347.971 343.206 345.855 333.559C343.114 333.106 338.398 333.82 334.846 335.131C331.294 336.442 331.13 344.881 333.324 348.18C336.286 351.501 344.04 345.422 345.068 342.206C345.068 337.067 343.717 332.813 339.4 330.236C337.811 330.354 336.221 330.474 334.633 330.593C323.556 331.558 319.12 384.655 319.12 384.655C319.076 384.655 305.674 460.117 305.629 460.117C300.496 451.797 315.263 378.289 313.615 367.361C315.403 341.819 311.256 350.105 311.256 346.136C303.451 346.136 300.589 358.726 302.607 368.147C306.96 375.97 316.721 353.591 309.684 345.35C308.515 345.47 305.144 345.607 303.973 345.727C302.405 345.727 299.044 358.687 298.941 360.263C297.581 369.88 286.907 424.445 278.877 458.805C276.913 469.171 273.118 472.553 271.154 482.918C268.351 489.808 265.308 513.761 262.504 520.651C233.224 580.783 210.609 601.646 212.926 598.815C210.679 601.202 206.953 606.024 203.39 606.024C205.884 602.687 208.378 599.35 210.873 596.014C213.676 590.414 217.24 586.781 220.043 581.181C235.033 559.151 258.561 510.789 255.427 519.865C258.098 512.697 262.566 491.533 265.237 484.365C284.905 474.865 175.243 526.275 145.649 539.893L146.128 533.229H106.812V648H685.547V374H1214.5" stroke="#0E0C0E" stroke-width="2" stroke-linejoin="round"/>
</svg>
