<svg width="864" height="720" viewBox="0 0 864 720" fill="none" xmlns="http://www.w3.org/2000/svg">
<rect width="864" height="720" fill="white"/>
<path d="M739.636 710C734.398 675.708 704.629 684.645 678.984 680.127C679.714 674.196 725.489 676.264 727.868 648.443C728.269 643.747 724.092 626.937 720.625 624.001C715.28 619.472 698.349 616.984 694.373 611.327C687.697 601.828 687.813 576.759 675.651 573.574C666.183 571.096 649.432 577.783 640.963 585.075C634.793 592.812 608.929 622.141 621.952 653.874C627.294 666.123 668.659 682.821 696.006 662.182C700.369 658.889 705.769 655.575 707.479 649.936C712.294 634.051 708.731 625.406 706.183 609.834C705.897 608.085 704.532 596.901 701.113 597.931C697.569 601.978 694.024 606.027 690.479 610.075C682.104 617.614 670.115 620.477 659.872 624.688C649.595 628.912 633.595 628.941 615.276 630.074C615.286 630.471 599.934 624.05 592.984 625.811C575.814 631.172 547.088 660.281 543.195 694.611C542.46 701.097 574.963 705.576 579.405 706.379C596.07 709.393 627.562 696.325 631.91 684.653C633.122 678.636 592.677 622.776 579.405 620.38C579.405 620.38 556.617 620.867 543.195 628.527C538.652 631.12 517.638 647.007 503.92 644.534C496.593 643.215 491.413 637.222 487.111 631.67C479.416 621.743 471.84 562.538 483.375 537.847C494.439 514.166 541.822 487.347 557.396 522.788C566.529 543.571 565.824 565.288 561.665 587.177C559.874 593.465 558.082 599.756 556.291 606.044C570.3 606.044 573.002 586.053 574.664 576.096C578.974 550.271 564.962 484.347 607.634 490.165C655.626 496.707 660.257 539.159 648.205 572.401C643.054 586.61 610.058 587.704 586.647 571.496C594.019 561.42 631.685 537.71 627.778 513.64C627.282 513.057 626.787 512.474 626.291 511.891C625.631 511.879 624.97 511.867 624.31 511.856C612.858 517.485 615.838 530.869 604.753 541.622C603.356 542.651 585.328 562.319 583.932 563.348C583.932 563.348 621.637 467.091 585.742 464.675C557.872 462.8 556.219 490.395 528.711 486.401C519.981 485.134 509.283 464.394 497.027 457.433C487.312 452.639 469.209 461.196 459.911 462.865C438.345 466.737 419.1 450.751 406.685 487.081C404.721 492.827 400.937 500.511 404.627 506.257C418.645 528.082 466.927 522.196 482.543 510.843C488.25 506.694 493.76 504.808 507.045 486.053C511.189 488.507 495.372 507.508 493.406 509.938C483.152 522.618 444.492 524.588 431.848 545.243C420.006 564.589 446.979 636.095 423.701 643.011C396.441 651.11 357.258 644.371 365.765 607.706M365.765 607.706C368.628 595.365 402.039 557.611 414.309 568.486C414.309 576.93 375.961 599.884 365.765 607.706ZM365.765 607.706C365.765 607.706 302.456 618.645 309.639 572.401C329.696 542.049 375.03 515.662 399.259 516.275C398.783 516.428 381.215 513.823 362.144 523.517C292.239 549.622 270.868 624.623 268.902 627.622C267.842 629.238 243.697 682.884 235.896 682.884C235.896 682.884 46.4904 682.012 42.0003 681.326C41.889 681.503 72.0123 522.285 71.8448 522.219C71.8829 522.162 71.9209 522.105 71.9589 522.047C71.9589 522.047 287.694 529.751 338.313 527.845C338.313 527.845 315.122 520.131 302.397 518.085C321.26 492.741 376.863 473.571 345.849 445.665C320.077 422.475 268.971 430.804 255.323 462.865C247.263 481.801 252.877 493.097 252.877 510.176C249.359 508.716 231.175 474.22 265.989 438.171C272.735 433.518 279.484 428.863 286.23 424.209C286.268 423.855 286.306 423.501 286.344 423.146C285.848 422.814 285.352 422.483 284.857 422.152C277.463 423.798 270.067 425.444 262.673 427.091C228.621 439.327 214.481 455.026 207.345 473.728C205.325 479.02 201.322 510.65 204.629 516.275C204.629 516.275 181.527 511.517 177.471 495.454C169.401 463.493 192.975 422.288 224.545 384.107C224.545 384.107 266.725 332.865 271.618 327.982C283.05 315.331 293.73 282.027 306.923 267.329C324.752 259.594 350.651 250.623 368.48 242.887C369.235 242.561 388.843 235.506 389.598 235.179C407.631 229.404 425.669 223.626 443.702 217.851C443.702 217.851 450.731 253.82 453.575 270.045C456.414 286.248 468.674 377.601 472.585 390.444C476.001 428.509 485.198 437.753 487.785 443.947C487.785 443.947 478.951 439.109 474.108 436.859C464.481 432.952 454.853 429.044 445.226 425.137C430.329 412.737 408.595 398.398 390.207 386.823C390.455 391.977 360.939 420.714 332.707 431.802C345.156 435.189 361.546 437.74 366.425 449.719C371.031 461.032 369.184 471.75 361.414 481.083C360.63 482.389 360.212 484.189 359.428 485.496C359.428 485.496 392.08 499.095 394.772 499.095C394.772 458.631 439.456 447.593 472.935 447.593C482.116 447.928 491.299 448.264 500.481 448.599C500.481 448.599 513.708 411.859 516.943 394.971C527.061 346.298 532.065 273.243 531.342 276.442C531.342 276.442 497.679 301.695 490.684 281.586C485.51 266.712 515.247 246.872 529.616 254.656C541.368 267.911 521.148 283.397 506.08 281.813C492.051 280.34 492.501 270.46 492.501 260.992C490.515 260.992 497.266 252.205 512.416 249.224C494.574 247.003 471.948 237.302 466.087 224.166C452.467 193.639 452.7 180.799 451.807 184.097C449.333 194.098 446.859 204.102 444.386 214.103C444.285 214.103 444.183 214.103 444.081 214.103C441.52 211.795 444.436 183.21 448.143 177.709C448.143 177.709 413.651 114.064 434.827 108.81C442.264 106.868 449.08 114.611 457.198 105.387C469.909 90.9444 466.932 71.5167 476.409 56.5763C489.113 36.5493 553.286 20.701 572.163 40.1097C586.234 54.5757 597.963 88.4876 596.333 108.327C595.953 112.958 593.421 146.151 596.9 148.238C603.947 148.766 609.987 149.787 613.805 131.541C624.13 68.6525 605.525 54.3666 582.152 29.6775C574.855 21.9684 557.228 12.3998 547.721 11.1415C512.22 6.4432 478.293 15.8144 454.48 47.3518C448.339 55.4855 434.564 79.292 434.564 88.9936C434.564 96.4357 442.996 102.58 448.356 108.209C453.424 113.531 469.718 112.964 492.501 115.246C515.5 117.55 545.069 127.352 554.963 129.73C563.744 131.84 580.391 136.71 589.363 142.404C592.019 144.089 583.43 163.89 581.216 166.846C577.147 172.276 552.082 174.023 540.479 166.846C537.648 165.094 548.093 143.251 544.1 135.162C541.572 130.039 529.477 124.824 523.586 128.361C523.586 128.361 514.773 150.828 512.416 151.456C508.082 152.16 467.599 145.24 465.826 139.979C463.246 132.318 465.093 119.854 465.953 118.093C445.587 140.36 480.697 167.061 502.339 157.312C499.626 161.784 503.372 166.881 505.174 169.561C514.58 176.889 517.205 164.13 523.279 164.13C530.056 179.405 536.816 184.494 535.048 194.909C528.713 202.651 496.624 192.185 491.161 187.343C491.161 204.804 515.981 204.471 526.913 204.471C526.913 221.055 487.928 216.523 479.828 216.523C480.45 218.758 490.276 232.203 506.08 236.551C518.664 236.477 537.954 231.711 549.532 224.782C549.532 224.782 574.47 188.877 588.8 170.057C593.763 163.6 598.727 157.142 603.691 150.686C614.698 164.497 560.085 203.183 560.085 231.302C560.085 231.302 552.371 249.691 549.896 258.62C548.905 267.568 547.914 276.52 546.923 285.469C546.923 285.469 524.883 351.981 524.883 380.661C529.507 369.925 534.133 359.185 538.757 348.448C546.303 324.575 553.852 300.694 561.398 276.821C563.685 265.147 565.972 253.47 568.259 241.796C568.272 241.911 568.284 242.025 568.297 242.139C568.297 242.139 590.975 261.908 606.104 267.971C623.444 274.921 644.502 278.627 657.674 292.361C676.74 312.243 682.298 341.225 693.922 364.881C693.922 364.881 702.792 376.931 707.226 382.956C713.615 395.396 720.007 407.84 726.397 420.28C739.61 451.956 739.586 478.792 739.586 511.426C736.757 516.557 686.006 516.988 678.79 513.279C676.389 512.078 673.988 510.877 671.586 509.677C671.586 509.677 658.819 421.008 620.626 440.4C614.886 443.314 607.586 445.004 604.045 450.725C600.023 464.04 631.254 502.469 648.526 492.097C658.019 484.613 647.421 467.088 647.421 458.17C647.421 465.109 659.221 481.078 660.038 493.229C660.618 501.868 660.611 507.049 657.56 514.841C656.925 516.338 656.29 517.837 655.654 519.335C655.654 519.335 739.998 541.695 760.817 520.325C760.817 520.325 818.918 670.004 822.234 678.894C822.285 678.941 822.336 678.986 822.386 679.032" stroke="#0E0C0E" stroke-width="2" stroke-linejoin="round"/>
</svg>
