<svg width="864" height="720" viewBox="0 0 864 720" fill="none" xmlns="http://www.w3.org/2000/svg">
<rect width="864" height="720" fill="white"/>
<path d="M355.593 31.6157C356.016 28.2 352.187 19.0652 350.19 19.909C348.192 20.7528 350.425 27.6867 349.028 28.6062C343.481 28.6062 342.863 27.3905 338.483 24.4116C336.327 23.231 332.314 23.7308 336.682 27.1131C337.884 27.8533 342.769 32.083 342.085 32.5162C338.016 31.106 331.499 26.5728 330.378 28.0136C328.369 30.8448 335.846 33.4554 339.27 35.3393C336.671 37.0638 333.376 35.0115 329.478 32.5162C329.41 32.5918 328.059 31.8237 327.677 33.4167C329.108 38.646 335.517 40.2255 340.284 42.4218C345.736 44.9334 348.602 54.5121 349.289 61.3326C352.012 77.4112 360.635 90.9252 372.56 92.1229C372.577 83.1223 372.539 65.2687 372.611 65.1192C376.412 66.3088 382.559 107.252 364.876 107.252C364.885 102.323 364.893 97.3927 364.901 92.4642C357.354 108.663 363.599 118.388 384.409 121.667C384.409 121.667 393.936 123.716 398.817 122.567C400.629 119.031 401.338 110.699 403.32 96.4526C404.938 105.184 403.867 123.669 404.22 124.368C419.488 125.801 461.081 128.025 463.654 130.672C463.409 135.142 421.526 127.337 412.651 127.337C417.975 130.081 439.372 138.188 463.654 141.478C465.374 142.934 468.295 146.783 471.759 160.389C455.203 149.032 437.367 140.523 419.375 134.07C429.688 156.938 447.567 161.726 451.947 155.886C452.868 157.294 446.075 178.363 442.042 177.499C432.343 174.016 425.175 146.085 422.231 144.18C421.067 147.513 431.174 186.949 437.539 186.504C451.751 188.432 458.79 166.422 460.953 162.19C460.747 173.052 427.348 224.302 413.225 218.922C407.356 219.174 409.441 166.931 413.611 138.823C413.611 138.823 406.372 156.049 406.021 160.389C404.161 183.461 398.279 216.622 413.225 227.927C423.986 233.506 446.595 203.766 454.649 188.305C457.117 183.93 462.577 170.467 462.754 170.295C452.585 224.481 402.826 260.797 399.718 258.545C396.609 256.293 399.196 229.323 398.817 216.221C399.937 201.177 400.434 186.936 401.554 171.892C403.239 158.676 402.535 144.788 404.22 131.573C394.074 139.068 390.191 246.973 394.315 255.843C394.315 255.843 387.927 257.305 385.31 262.147C383.514 268.501 387.06 280.226 387.111 280.157C384.506 281.044 366.327 279.689 375.4 308.613C375.4 308.613 386.786 292.672 392.944 292.672C387.585 299.011 382.224 305.352 376.865 311.689C376.865 311.689 378.837 326.984 383.508 326.984C383.508 326.984 399.226 330.917 404.22 331.486C464.463 340.46 482.468 324.098 483.33 331.722C474.526 336.684 420.869 337.084 407.822 334.188C371.551 326.136 375.29 330.904 374.503 332.387C371.975 343.457 450.5 341.235 463.654 340.491C474.243 339.305 487.864 332.567 487.678 337.728C475.733 353.643 389.999 339.57 384.409 344.093C381.681 346.536 376.805 348.447 377.205 351.298C380.154 353.549 385.476 347.343 390.289 347.803C392.135 350.301 382.044 352.288 382.608 355.8C394.865 351.66 402.272 352.425 402.419 354.9C402.453 356.477 395.253 358.731 395.215 361.203C395.308 365.242 416.619 358.163 416.827 363.004C415.833 368.617 402.987 364.722 402.419 367.507C403.748 371.482 410.494 369.655 413.225 372.009C412.429 374.493 410.627 374.083 406.922 374.711C398.12 374.612 386.414 368.86 385.31 369.308C383.884 369.702 386.12 374.146 384.409 374.711C378.438 374.857 380.456 370.953 378.105 369.308C374.333 372.729 379.185 374.582 371.579 374.582C369.117 372.702 369.85 373.961 369.379 370.806C370.41 368.634 381.472 360.516 377.797 357.225C362.345 359.861 366.184 376.123 366.269 378.29C366.269 378.29 382.718 379.261 390.94 379.747C421.035 379.588 451.138 379.429 481.232 379.269C481.341 379.755 481.451 380.24 481.561 380.725C474.334 385.383 402.706 391.008 391.32 389.984C382.204 387.846 373.085 385.707 363.969 383.569C364.357 391.675 364.211 399.924 364.598 408.03C410.377 412.633 461.931 406.657 495.172 408.93C495.004 407.3 494.44 405.157 494.272 403.527C504.491 405.127 515.425 407.13 525.644 408.73C525.67 409.003 525.764 410.459 525.789 410.731C523.011 414.473 489.635 414.061 482.565 414.333C441.821 415.902 401.323 416.424 360.996 412.532C344.173 410.67 340.107 408.449 340.284 406.229C347.63 403.908 360.092 403.001 360.759 401.359C358.736 400.2 352.019 401.544 348.389 401.726C323.945 405.43 343.712 410.992 328.53 419.764C327.3 419.931 307.162 419.328 301.562 430.543C299.592 442.507 296.947 481.275 302.462 480.071C306.317 480.102 306.919 472.282 310.567 469.265C314.916 469.52 316.778 476.042 315.07 485.474C316.426 488.877 319.279 489.915 321.41 497.418C314.129 504.426 309.468 502.229 309.453 490.253C309.05 486.885 309.53 487.734 308.013 487.704C300.324 493.624 312.406 503.103 305.814 509.044C304.221 509.059 302.629 509.074 301.036 509.089C300.766 509.416 298.621 544.272 300.227 545.716C309.126 543.675 303.44 527.853 311.45 528.313C311.695 531.164 311.939 534.015 312.183 536.866C323.413 540.061 326.624 507.863 332.178 529.359C332.402 537.322 317.492 548.597 317.492 555.773C318.36 556.607 319.227 557.442 320.095 558.276C329.237 560.736 330.58 548.902 336.804 548.902C344.298 557.4 334.832 576.964 334.832 586.85C334.731 586.903 334.63 586.956 334.529 587.009C334.428 587.009 334.327 587.009 334.226 587.009C327.469 583.349 332.304 565.645 332.304 559.732C331.79 559.671 331.277 559.61 330.763 559.55C326.43 560.838 326.065 565.965 320.727 565.965C307.221 561.347 314.283 547.117 311.653 546.082C305.4 545.659 300.351 560.016 302.462 587.232C302.736 590.76 311.072 590.728 312.436 596.883C312.336 594.795 314.155 605.113 311.468 607.043C306.367 606.443 310.454 600.175 306.064 599.839C301.758 601.021 310.148 618.435 302.462 619.65C297.098 653.549 309.199 649.597 332.179 656.571C332.179 653.538 325.325 636.449 335.995 636.449C338.542 641.801 332.786 660.173 342.985 660.173C342.514 645.114 343.457 631.107 342.985 616.048C342.143 615.609 340.731 614.23 339.888 613.791C340.284 608.225 339.368 602.817 340.284 598.938C343.201 597.277 343.27 598.305 344.786 601.64C344.786 601.64 349.722 541.986 349.722 535.028C346.896 535.028 344.783 542.999 339.864 540.796C337.391 515.856 337.984 506.414 339.485 507.661C340.945 508.291 339.892 506.405 343.886 524.196C348.85 523.838 347.352 512.275 348.433 481.658C348.395 481.658 348.357 481.658 348.319 481.658C347.195 483.784 346.07 485.912 344.945 488.039C343.833 488.095 341.396 488.119 340.284 488.175C339.741 485.355 340.522 482.567 339.979 479.747C339.965 479.735 339.953 479.723 339.94 479.712C331.074 478.62 327.358 462.293 332.179 461.16C332.533 461.16 336.328 461.16 336.682 461.16C336.942 471.539 342.531 473.152 342.985 472.867C348.667 470.507 345.808 460.713 348.389 453.956C361.137 451.728 347.936 513.823 358.294 507.987C362.894 504.802 367.24 498.771 371.802 498.982C376.033 500.765 374.14 507.117 374.14 512.541C380.059 518.751 389.27 524.613 376.304 530.5C371.123 529.8 370.68 524.127 367.299 524.196C363.559 525.231 363.505 527.791 359.195 526.897C357.283 525.597 354.083 513.393 354.083 513.393C353.679 518.579 354.196 524.412 353.792 529.599C353.792 539.277 351.861 560.281 355.599 567.003C362.905 571.558 369.976 580.513 368.2 586.331C369.304 587.325 376.975 594.47 376.984 595.634C377.074 607.07 371.126 605.433 367.125 613.719C367.025 616.881 368.784 621.908 367.299 625.053C364.582 625.102 351.056 603.377 361.287 596.692C360.201 593.769 359.381 591.956 358.294 589.033C357.574 586.724 363.135 581.637 358.294 577.326C355.766 577.611 348.521 563.436 350.19 641.263C349.557 647.302 346.262 657.969 347.488 661.074C351.847 662.405 358.702 661.722 362.797 661.074C363.53 657.161 361.163 652.379 361.896 648.467C365.681 647.284 369.24 648.08 372.702 648.467C375.166 648.967 381.045 649.767 383.508 650.268C390.178 652.851 380.304 659.648 382.608 663.775C388.929 665.978 389.603 665.222 403.829 663.089C401.769 659.814 399.076 658.046 397.016 654.77C394.536 633.031 401.252 639.604 402.419 631.357C402.407 628.661 403.159 625.757 403.146 623.06C406.723 621.98 410.301 620.899 413.876 619.819C421.57 615.67 415.297 601.382 419.944 598.901C443.466 617.119 405.108 638.518 406.521 649.098C407.312 655.019 411.884 645.77 415.886 647.221C421.163 649.57 417.687 658.964 419.868 662.919C420.204 663.121 435.15 659.965 447.445 664.676C450.871 664.625 449.297 662.348 449.246 661.074C445.72 650.046 464.07 644.68 467.187 631.9C469.504 622.4 452.503 619.621 453.748 610.645C455.758 598.567 466.427 615.196 470.858 615.148C472.897 614.977 473.285 612.143 476.06 613.096C479.367 613.992 475.367 635.071 480.764 642.163C475.859 646.503 462.03 650.651 462.03 660.974C462.296 662.362 462.562 663.749 462.827 665.137C469.487 664.943 480.64 664.123 482.565 665.576C482.793 667.51 483.537 669.738 481.664 671.88C474.691 672.933 470.516 671.254 463.654 671.88C463.629 672.801 464.123 675.447 462.754 676.383C460.883 676.997 459.086 676.228 457.215 676.842C457.334 681.253 459.168 686.719 460.052 690.791C452.778 696.027 433.729 705.65 433.937 686.288C437.123 677.656 441.184 689.521 445.644 687.189C448.271 686.291 450.32 687.346 449.746 683.086C448.217 681.642 446.688 680.197 445.158 678.753C445.132 678.161 445.107 677.569 445.082 676.978C448.393 675.83 451.705 674.681 455.016 673.531C455.016 673.429 455.016 673.326 455.016 673.224C450.169 668.88 428.502 663.25 424.266 670.835C424.709 672.951 425.151 675.067 425.593 677.183C413.622 683.925 409.139 686.051 398.817 695.293C398.767 695.293 398.382 695.405 398.332 695.405C393.207 685.909 407.485 685.018 408.723 678.184C409.873 677.899 417.479 676.667 418.628 676.383C420.718 672.054 420.163 672.307 420.095 670.597C398.851 670.153 380.438 669.622 359.195 669.178C357.169 671.427 360.817 676.337 358.294 678.184C353.846 680.959 353.738 683.513 349.289 686.288C346.008 685.875 346.691 693.203 342.367 694.45C337.981 689.353 345.274 681.963 347.827 676.057C347.157 674.316 346.487 672.575 345.817 670.835C344.241 669.424 302.792 653.654 301.562 654.77C292.482 668.425 299.761 690.011 299.761 703.398C339.661 707.96 378.421 707.259 415.927 708.801C450.199 710.209 485.323 711.157 519.486 707C557.279 702.402 557.86 710.651 561.81 679.985C562.642 673.527 565.495 664.088 561.271 658.469C544.02 658.289 506.02 670.621 490.669 667.377C490.669 667.377 488.66 658.04 492.471 624.153C494.16 590.901 490.862 595.971 487.067 598.038C473.102 606.142 475.716 595.307 466.698 594.679C459.004 594.143 437.058 601.808 441.141 586.331C440.976 583.777 442.854 579.929 445.313 578.299C450.775 577.099 449.491 590.369 456.45 587.232C459.434 584.548 456.964 578.227 462.754 578.227C473.101 589.08 475.611 589.646 489.562 587.445C490.791 586.348 492.112 555.065 489.258 554.242C489.208 554.242 489.158 554.242 489.107 554.242C487.14 556.038 487.798 563.014 485.266 564.719C475.513 566.931 467.804 551.307 477.239 545.027C496.467 552.737 485.784 515.099 490.669 497.181C493.097 491.489 473.624 501.222 476.261 484.573C477.248 480.381 486.111 482.95 489.769 480.071C494.805 476.107 490.779 469.18 495.172 451.254C494.925 470.981 499.157 471.531 498.774 471.966C499.229 467.667 499.951 462.446 500.406 458.147C509.864 456.913 501.359 476.518 507.779 476.469C511.7 476.646 511.592 470.014 514.983 470.165C518.714 470.418 518.975 477.736 506.879 489.976C526.943 508.019 506.897 515.663 508.68 512.489C504.583 511.29 509.306 492.678 497.874 492.678C494.144 494.363 496.88 518.561 496.88 522.95C499.211 525.063 501.259 525.017 500.861 528.955C498.649 534.233 496.437 539.512 494.226 544.789C497.208 605.394 496.222 590.255 497.183 590.209C500.199 588.858 499.227 577.548 503.819 578.572C504.337 582.28 504.854 585.989 505.372 589.697C515.172 589.055 515.648 592.096 516.103 595.464C513.892 604.952 504.916 597.641 500.899 601.265C496.773 606.822 509.331 620.491 502.376 629.556C497.304 631.004 500.102 618.318 496.973 609.745C493.288 669.997 494.701 661.743 496.973 661.974C500.618 655.557 504.653 651.763 504.653 643.068C510.919 638.571 510.682 634.697 510.682 626.926C509.071 626.679 520.613 632.894 517.241 653.237C515.567 655.748 505.078 654.741 505.078 660.173C508.243 660.013 513.036 659.019 516.784 658.372C536.105 658.007 518.211 607.664 532.994 612.446C542.222 619.753 531.23 652.464 534.795 655.671C560.509 651.672 564.738 659.843 565.319 615.495C564.951 582.379 561.921 587.985 559.327 585.875C552.1 592.964 564.369 630.736 549.203 630.456C549.203 630.456 537.706 587.35 545.981 576.627C547.469 576.52 553.006 581.605 556.407 574.625C559.483 574.986 561.251 578.156 562.71 579.127C566.371 582.916 564.505 568.935 564.512 520.594C564.512 520.594 560.252 525.787 554.702 525.388C549.804 523.283 551.276 508.778 549.203 500.783C555.604 494.071 546.538 475.794 557.307 474.668C562.454 478.361 552.717 510.542 561.678 514.502C566.835 513.091 564.851 538.866 567.632 437.176C567.632 437.585 567.232 437.46 396.591 442.241C381.303 442.241 345.495 446.644 332.55 434.904C334.56 434.551 336.57 434.199 338.579 433.846C354.085 434.062 369.596 434.279 385.102 434.495C396.748 433.569 484.477 433.074 517.685 434.145C557.189 434.458 584.367 428.017 526.69 427.841C538.081 423.595 532.487 416.234 525.118 404.183C513.45 401.157 504.146 399.266 494.188 398.186C494.188 398.186 493.295 393.801 489.769 376.512C469.118 371.377 452.911 374.036 450.146 368.407C448.842 364.131 456.916 369.266 459.494 365.719C461.018 362.532 446.651 361.578 448.345 355.8C450.128 355.414 451.066 355.286 452.848 354.9C456.247 356.936 460.736 361.696 464.555 359.402C463.139 356.24 457.145 353.976 459.152 350.397C461.745 348.671 465.895 355.652 468.157 355.8C481.654 364.607 470.505 349.724 471.759 348.596C471.572 348.452 487.175 353.282 488.868 365.706C488.234 368.226 478.564 362.943 478.062 368.407C481.793 373.814 488.512 372.829 490.737 370.462C491.698 364.73 491.283 371.927 485.266 349.497C494.726 332.333 490.605 334.444 484.366 327.884C502.155 308.869 485.619 313.577 485.619 301.018C487.691 298.608 490.398 296.076 492.471 293.665C492.471 293.665 496.639 289.884 495.172 279.257C493.314 272.55 477.472 263.726 473.56 256.744C469.389 255.732 462.256 259.05 458.251 254.042C465.832 244.354 469.866 243.535 465.455 242.336C460.843 244.291 458.154 245.07 453.541 247.025C451.845 249.513 454.002 252.564 453.748 254.042C460.528 265.407 447.666 272.777 443.843 281.958C442.995 290.086 450.901 296.893 449.246 300.869C446.647 301.823 445.204 298.141 442.85 298.827C442.946 304.466 442.809 305.498 441.141 306.272C439.372 306.18 441.584 308.331 437.539 300.869C436.756 302.917 436.897 306.621 433.862 306.744C429.364 306.335 436.222 274.129 435.738 263.948C436.514 259.234 443.023 254.807 446.224 248.595C433.493 259.711 413.071 265.631 410.524 270.251C410.951 278.133 423.597 294.645 401.519 298.167C400.652 295.116 403.773 292.691 401.519 292.764C399.82 293.296 396.167 295.976 396.116 294.565C399.351 290.585 405.276 284.217 405.121 281.058C403.042 278.27 398.805 280.099 395.215 279.257C395.102 278.563 395.004 277.037 397.016 274.754C405.914 264.169 458.47 231.647 472.659 236.933C471.97 239.57 469.036 254.086 474.46 254.042C476.461 254.026 475.998 242.338 484.366 236.933C486.298 235.684 475.537 232.295 475.326 229.336C475.119 226.441 479.329 222.016 474.547 219.624C445.505 233.909 448.01 241.997 467.256 181.101C467.256 189.459 468.293 209.523 471.855 214.368C473.603 215.915 475.338 216.008 477.049 213.139C477.049 213.139 469.622 198.605 468.157 163.09C471.85 168.192 474.613 166.142 475.361 164.892C476.969 148.6 471.037 144.01 464.272 135.709C465.767 132.145 465.623 128.92 466.283 125.281C463.049 115.696 462.429 103.61 460.953 93.751C462.671 98.6534 470.041 118.566 471.759 123.468C480.534 121.36 485.045 118.877 503.894 110.013C496.158 98.7822 492.032 84.7666 493.088 71.7245C493.088 74.1946 497.778 86.3308 501.278 86.3308C501.278 86.3308 528.858 68.6033 525.999 35.0115C531.117 31.0421 540.843 25.9569 538.397 23.5111C537.313 22.4314 532.165 25.0635 527.59 26.2126C527.59 23.2679 537.931 17.3867 535.744 14.2637C533.752 13.4397 528.767 18.0405 525.279 19.9288C526.416 16.5735 530.352 12.2628 528.491 10.0034C528.453 9.99167 527.628 10.0151 527.59 10.0034C520.709 10.0034 519.607 21.5506 513.182 21.71C511.597 20.669 512.121 17.3813 511.668 15.4236C508.027 15.3335 509.315 15.0147 507.8 16.379C506.274 22.5322 511.857 27.4247 511.857 33.0322C505.114 45.2233 493.145 68.6862 489.769 67.6362C486.426 66.1035 470.521 78.3739 460.139 78.8953C456.573 79.0745 452.528 80.4649 450.433 76.7115C452.644 70.0928 454.931 63.7009 457.351 57.7305C462.818 58.8877 451.413 78.7476 460.025 72.6169C460.733 70.4557 462.046 69.7974 462.754 67.6362C473.515 67.9081 468.895 62.0134 467.57 58.0115C469.592 56.4986 471.833 57.9259 473.637 53.4729C471.077 48.3949 472.911 48.7749 474.282 42.4164C471.669 38.809 467.052 38.5487 463.437 36.6153C461.181 33.9057 468.46 23.0401 455.549 20.8095C453.858 19.6209 451.039 20.7933 449.788 21.4984C445.306 19.4777 438.44 16.9796 438.44 25.3121C440.349 28.2685 442.318 27.9362 444.859 28.562C441.848 28.3738 456.002 28.1118 445.644 23.5111C437.325 22.3701 446.24 30.4351 448.345 32.5162C447.382 37.5771 430.335 36.039 430.335 41.5213C433.09 43.5592 438.413 42.0346 439.854 40.9144C442.013 49.4755 433.396 46.1436 434.838 53.228C437.908 53.4558 438.971 54.8012 442.042 55.029C451.113 34.0489 461.587 55.7755 455.549 52.3275C452.349 50.2968 449.153 50.6633 448.345 52.3275C448.276 56.7769 442.493 68.1918 433.937 60.4321C433.836 59.5676 441.528 59.437 442.042 60.4321C441.979 62.2745 443.022 64.1062 441.787 65.4506C446.611 68.5178 449.006 70.7096 444.743 75.7408C422.86 80.0488 408.466 48.0906 433.037 31.6157C439.872 29.8309 434.061 24.7033 433.938 24.7051C419.914 18.1062 415.012 29.4058 417.728 38.8198C414.439 43.2944 405.54 44.0103 404.22 50.5264C407.53 51.6764 412.541 49.073 411.454 52.8588C401.898 58.2141 405.887 66.1233 405.425 65.5875C408.231 65.3372 411.037 65.0868 413.843 64.8365C413.881 64.9049 413.919 64.9734 413.957 65.0409C413.489 67.1229 411.668 70.2792 413.225 73.0392C415.567 77.2311 419.278 71.2688 422.231 72.1387C429.746 92.5885 436.319 82.0561 448.043 82.0696C448.296 82.9449 447.192 84.7702 447.445 85.6464C435.635 91.8951 416.985 84.7135 413.615 83.912C407.549 89.4133 416.827 107.516 416.827 114.463C419.318 119.009 396.998 97.0046 409.293 72.8555C396.038 67.3444 362.155 65.7982 355.322 34.908" stroke="#0E0C0E" stroke-linejoin="round" stroke-width="2"/>
</svg>
