<svg id="Grupo_6" data-name="Grupo 6" xmlns="http://www.w3.org/2000/svg" width="740" height="41" viewBox="0 0 740 41">
  <path id="Trazado_78" data-name="Trazado 78" d="M247.545,39.489V17.263a6.645,6.645,0,0,1,.22-2.59c0,.216-.439.863-.659,1.51L238.32,31.937h-3.3l-8.786-15.753a7.8,7.8,0,0,1-.659-1.51,22.3,22.3,0,0,1,.22,2.59v22.01h-8.566V1.079h8.346l10.544,18.558a4.26,4.26,0,0,1,.658,1.726,5.784,5.784,0,0,1,.659-1.726l9.885-18.558h8.786V39.274h-8.567Z" fill="#db2a6b"/>
  <path id="Trazado_79" data-name="Trazado 79" d="M264.019,39.489V1.079h22.624V8.2H272.585v9.063h13.179v6.905H272.585v8.2h14.936v7.121Z" fill="#db2a6b"/>
  <path id="Trazado_80" data-name="Trazado 80" d="M323.105,39.489V17.263a6.645,6.645,0,0,1,.22-2.59c0,.216-.44.863-.659,1.51L313.88,31.937h-3.3L301.8,16.184a7.738,7.738,0,0,1-.659-1.51,22.3,22.3,0,0,1,.22,2.59v22.01h-8.567V1.079h8.347l10.543,18.558a4.266,4.266,0,0,1,.659,1.726A5.784,5.784,0,0,1,313,19.637l9.884-18.558h8.786V39.274h-8.566Z" fill="#db2a6b"/>
  <path id="Trazado_81" data-name="Trazado 81" d="M397.566,39.489,386.8,21.363V39.489h-8.566V1.079h14.057c8.128,0,13.4,4.747,13.4,11.437,0,5.611-3.514,9.495-8.786,10.789l10.324,15.968h-9.665ZM392.075,8.2h-5.491v9.279h5.491c3.075,0,4.832-1.942,4.832-4.963C396.907,9.926,394.93,8.2,392.075,8.2Z" fill="#db2a6b"/>
  <path id="Trazado_82" data-name="Trazado 82" d="M421.288,1.079h-8.566V39.274h8.566Z" fill="#db2a6b"/>
  <path id="Trazado_83" data-name="Trazado 83" d="M452.918,39.489l-3.075-9.711H437.982l-3.075,9.711h-8.786L439.959,1.295h8.127l14.057,38.195ZM445.01,13.379a25.329,25.329,0,0,1-.878-3.021,25.2,25.2,0,0,1-.879,3.021L440.4,22.658h7.468Z" fill="#db2a6b"/>
  <path id="Trazado_84" data-name="Trazado 84" d="M32.728,40.137V10.574a3.049,3.049,0,0,1-.439.863l-12.3,16.184h-2.2L5.711,11.868a3.1,3.1,0,0,1-.439-.647V40.137H0V1.942H4.613L19.329,20.716,33.606,1.942h4.832V40.137Z" fill="#db2a6b"/>
  <path id="Trazado_85" data-name="Trazado 85" d="M59.525,40.137V37.547a8.005,8.005,0,0,1-6.37,3.237c-5.271,0-8.127-2.805-8.127-8.2V18.342H50.08V31.505a4.232,4.232,0,0,0,4.173,4.531c3.514,0,5.272-3.453,5.272-6.042V18.342h5.052V40.137Z" fill="#db2a6b"/>
  <path id="Trazado_86" data-name="Trazado 86" d="M77.536,40.784a12.571,12.571,0,0,1-7.907-2.805l2.416-3.668a8.428,8.428,0,0,0,5.272,1.942c1.537,0,2.855-.647,2.855-1.942,0-1.511-1.318-2.374-3.295-3.237-2.856-1.295-6.809-2.805-6.809-7.121,0-3.453,3.295-6.042,7.249-6.042a13.6,13.6,0,0,1,7.248,1.942l-1.977,3.884a8.989,8.989,0,0,0-4.832-1.51c-1.1,0-2.416.216-2.416,1.726,0,1.079,1.538,1.942,3.514,2.805,2.855,1.51,6.37,3.237,6.37,7.553C85.224,37.763,82.149,40.784,77.536,40.784Z" fill="#db2a6b"/>
  <path id="Trazado_87" data-name="Trazado 87" d="M94.01,29.995a6.373,6.373,0,0,0,6.59,6.258,11.065,11.065,0,0,0,7.468-2.589l3.075,3.237A15.47,15.47,0,0,1,100.6,41c-6.59,0-11.642-4.316-11.642-11.653,0-6.474,4.613-11.221,11.422-11.221,6.589,0,11.2,5.179,11.2,12.084H94.01Zm6.15-7.768c-2.855,0-5.271,1.51-5.93,3.884h11.641C105.212,23.737,103.016,22.226,100.16,22.226Z" fill="#db2a6b"/>
  <path id="Trazado_88" data-name="Trazado 88" d="M126.518,40.784c-6.589,0-11.2-4.532-11.2-11.653,0-5.826,4.173-11.437,11.2-11.437A10.976,10.976,0,0,1,137.94,28.916C137.94,35.605,133.327,40.784,126.518,40.784ZM126.3,22.442c-3.734,0-5.931,3.021-5.931,6.689,0,4.316,2.2,7.121,5.931,7.121,4.612,0,6.369-3.021,6.369-6.905C132.668,25.032,130.252,22.442,126.3,22.442Z" fill="#db2a6b"/>
  <path id="Trazado_89" data-name="Trazado 89" d="M165.616,40.137V37.763a7.807,7.807,0,0,1-6.37,3.021c-5.711,0-9.884-5.395-9.884-11.653,0-6.474,3.954-11.437,9.884-11.437a7.557,7.557,0,0,1,6.37,3.021V1.942h5.052V40.137Zm-5.272-17.695c-3.514,0-5.711,3.453-5.711,6.905,0,3.668,1.977,6.905,5.492,6.905s5.711-3.453,5.711-7.121C166.055,25.679,163.859,22.442,160.344,22.442Z" fill="#db2a6b"/>
  <path id="Trazado_90" data-name="Trazado 90" d="M180.772,29.995a6.373,6.373,0,0,0,6.589,6.258,11.062,11.062,0,0,0,7.468-2.589L197.9,36.9A15.467,15.467,0,0,1,187.361,41c-6.589,0-11.641-4.316-11.641-11.653,0-6.474,4.612-11.221,11.422-11.221,6.589,0,11.2,5.179,11.2,12.084H180.772Zm6.15-7.768c-2.855,0-5.272,1.51-5.931,3.884h11.642C191.974,23.737,189.777,22.226,186.922,22.226Z" fill="#db2a6b"/>
  <path id="Trazado_91" data-name="Trazado 91" d="M496.408,40.137V37.763a7.8,7.8,0,0,1-6.369,3.021c-5.711,0-9.885-5.395-9.885-11.653,0-6.474,3.954-11.437,9.885-11.437a7.556,7.556,0,0,1,6.369,3.021V1.942h5.052V40.137Zm-5.271-17.695c-3.514,0-5.711,3.453-5.711,6.905,0,3.668,1.977,6.905,5.491,6.905s5.711-3.453,5.711-7.121C496.848,25.679,494.651,22.442,491.137,22.442Z" fill="#db2a6b"/>
  <path id="Trazado_92" data-name="Trazado 92" d="M511.564,29.995a6.373,6.373,0,0,0,6.59,6.258,11.065,11.065,0,0,0,7.468-2.589L528.7,36.9A15.469,15.469,0,0,1,518.154,41c-6.59,0-11.642-4.316-11.642-11.653,0-6.474,4.613-11.221,11.422-11.221,6.59,0,11.2,5.179,11.2,12.084H511.564Zm6.151-7.768c-2.856,0-5.272,1.51-5.931,3.884h11.641C522.766,23.737,520.57,22.226,517.715,22.226Z" fill="#db2a6b"/>
  <path id="Trazado_93" data-name="Trazado 93" d="M560.327,40.784a19.28,19.28,0,0,1-19.11-19.637c0-11.005,8.127-19.637,19.329-19.637,7.029,0,11.2,2.374,14.5,6.042L570.87,10.79a13.709,13.709,0,0,0-10.324-4.316c-7.468,0-13.838,5.826-13.838,14.458,0,9.926,7.688,14.674,13.619,14.674a14.994,14.994,0,0,0,11.421-5.395l3.734,3.237C572.627,37.763,567.136,40.784,560.327,40.784Z" fill="#db2a6b"/>
  <path id="Trazado_94" data-name="Trazado 94" d="M590.858,40.784c-6.59,0-11.2-4.532-11.2-11.653,0-5.826,4.173-11.437,11.2-11.437A10.976,10.976,0,0,1,602.28,28.916C602.28,35.605,597.667,40.784,590.858,40.784Zm0-18.342c-3.734,0-5.931,3.021-5.931,6.689,0,4.316,2.2,7.121,5.931,7.121,4.613,0,6.37-3.021,6.37-6.905C597.008,25.032,594.592,22.442,590.858,22.442Z" fill="#db2a6b"/>
  <path id="Trazado_95" data-name="Trazado 95" d="M612.384,1.942h-5.052V40.137h5.052Z" fill="#db2a6b"/>
  <path id="Trazado_96" data-name="Trazado 96" d="M628.857,40.784c-6.589,0-11.2-4.532-11.2-11.653,0-5.826,4.173-11.437,11.2-11.437a10.976,10.976,0,0,1,11.422,11.221C640.279,35.605,635.447,40.784,628.857,40.784Zm-.219-18.342c-3.734,0-5.931,3.021-5.931,6.689,0,4.316,2.2,7.121,5.931,7.121,4.612,0,6.369-3.021,6.369-6.905C635.007,25.032,632.591,22.442,628.638,22.442Z" fill="#db2a6b"/>
  <path id="Trazado_97" data-name="Trazado 97" d="M673.007,40.137V26.111a3.656,3.656,0,0,0-3.954-3.884,4.833,4.833,0,0,0-4.832,4.747V39.921h-5.052V25.895a3.656,3.656,0,0,0-3.954-3.884,4.88,4.88,0,0,0-4.832,4.963V39.921h-5.052V18.342h5.052V20.5a8.151,8.151,0,0,1,5.931-2.805,7.765,7.765,0,0,1,7.028,3.453,9.3,9.3,0,0,1,7.249-3.453c5.711,0,7.688,3.668,7.688,7.984V40.137Z" fill="#db2a6b"/>
  <path id="Trazado_98" data-name="Trazado 98" d="M695.192,40.784a7.923,7.923,0,0,1-6.37-3.237v2.589H683.77V1.942h5.052V20.932a8.051,8.051,0,0,1,6.37-3.237c5.711,0,9.884,4.747,9.884,11.221S700.9,40.784,695.192,40.784Zm-1.1-18.342c-3.294,0-5.711,3.453-5.711,6.905s2.2,7.121,5.492,7.121c3.734,0,5.711-3.237,5.711-7.121C699.8,25.463,697.827,22.442,694.093,22.442Z" fill="#db2a6b"/>
  <path id="Trazado_99" data-name="Trazado 99" d="M710.128,7.337h5.052v6.042h-5.052Zm0,11.005h5.052V40.137h-5.052Z" fill="#db2a6b"/>
  <path id="Trazado_100" data-name="Trazado 100" d="M735.168,40.137v-1.51a10.893,10.893,0,0,1-7.029,2.158c-5.491,0-8.347-3.237-8.347-7.337,0-5.179,5.272-7.984,12.081-7.984h3.3c0-2.59-1.1-3.453-4.393-3.453a15.917,15.917,0,0,0-6.809,1.295l-1.758-3.884c1.977-1.295,5.492-1.726,7.908-1.726,6.15,0,9.884,1.726,9.884,6.474V40.137Zm0-10.574H733.63c-5.711,0-8.566,1.079-8.566,3.884,0,2.158,2.416,3.021,4.613,3.021a8.73,8.73,0,0,0,5.491-1.726Z" fill="#db2a6b"/>
  <path id="Trazado_101" data-name="Trazado 101" d="M354.954,40.137c-11.422,0-19.768-7.984-19.768-20.284C335.186,9.711,342.654,0,354.734,0s19.988,9.063,19.988,19.421C374.722,30.858,366.6,40.137,354.954,40.137Zm-.22-32.153c-6.589,0-10.543,5.395-10.543,11.868,0,7.553,3.954,12.3,10.324,12.3,7.907,0,11.2-5.395,11.2-12.084C365.717,12.516,361.543,7.984,354.734,7.984Z" fill="#db2a6b"/>
</svg>
